<svg xmlns="http://www.w3.org/2000/svg" width="50" height="50" viewBox="0 0 50 50">
    <g fill="none" fill-rule="evenodd">
        <path fill="#000" fill-rule="nonzero" stroke="#131313" d="M25 49C11.745 49 1 38.255 1 25S11.745 1 25 1s24 10.745 24 24-10.745 24-24 24zm0-.4c13.034 0 23.6-10.566 23.6-23.6S38.034 1.4 25 1.4 1.4 11.966 1.4 25 11.966 48.6 25 48.6z"/>
        <path fill="#D3E5FB" d="M10.751 7C5.421 11.205 2 17.722 2 25.038 2 37.719 12.28 48 24.962 48c7.316 0 13.833-3.421 18.038-8.751a22.864 22.864 0 0 1-14.21 4.924c-12.682 0-22.963-10.28-22.963-22.962 0-5.366 1.84-10.302 4.924-14.211z"/>
        <path fill="#000" fill-rule="nonzero" stroke="#131313" d="M31.905 12.114a3.4 3.4 0 0 0-.414 2.224l.018.058c1.361 2.719 2.092 4.371 2.177 4.908.135.845-.328 1.31-1.609 1.31-.968 0-2.099-.49-3.389-1.478-2.09-2.649-3.246-4.074-3.508-4.32-.304-.282-.817-.373-1.537-.294l-4.192 3.793c-.697.294-1.197.44-1.484.44-.28 0-.731-.141-1.339-.426A85.29 85.29 0 0 0 14.6 15.31a106.855 106.855 0 0 0-2.34-3.206c-.252-.458-.572-.726-.959-.783-.349-.052-1.373.04-3.122.274l-1.984.288-.195.028.057.383 2.177-.315c1.695-.228 2.715-.32 3.008-.276.252.038.479.23.679.596a111.66 111.66 0 0 1 2.355 3.231 84.606 84.606 0 0 1 2.05 3.052l.08.072c.683.324 1.199.488 1.561.488.36 0 .912-.163 1.671-.485l4.113-3.757c.58-.055.965.017 1.158.197.24.225 1.414 1.67 3.483 4.295 1.395 1.08 2.61 1.608 3.685 1.608 1.511 0 2.172-.664 1.998-1.756-.094-.592-.823-2.24-2.2-4.991a3.016 3.016 0 0 1 .374-1.951c.36-.635 1.119-1.513 2.275-2.625.445-.695.573-1.342.404-1.968-.092-.343-.25-.577-.558-.895 0 0-.196-.2-.251-.26-.296-.314-.476-.595-.604-1.004a3.734 3.734 0 0 1 0-2.254l.057-.185L33.195 3l-.056.185a4.114 4.114 0 0 0 0 2.478c.147.471.358.8.69 1.154l.256.263c.266.276.391.46.463.728.138.51.035 1.043-.316 1.609-1.172 1.129-1.947 2.025-2.327 2.697zM10.156 31.6l.958.73 1.6.792-.933 3.067 1.133.352 1.29-2.044.027-.033 1.27-1.278-2.157-3.875-1.864-.703-2.377-.199-.619 2.843 1.672.348zM8 31.54L8.77 28l2.81.235 2.063.778L16 33.248l-1.449 1.457L13.101 37l-1.823-.567.948-3.12-1.326-.659-.034-.02-.898-.684L8 31.54zM21.095 31.543l-.11.033.05-.033h.06zM17.387 46H17v-2.063l1.263-.225 1.137-.878.37-.441-.428-.886v-2.49l2.604.99h1.557l.705-.804.575-2.148-1.282-1.369-3.07-.194-1.571-.247-.22-3.702h2.395L23.315 30l1.808 2.47 1.3.554h2.496l1.186-1.078h2.36l3.507 3.76h3.54l2.584-1.397L46 35.787l-.139.356-3.737-1.415-2.513 1.359h-3.809l-3.507-3.76h-2.039l-1.185 1.078h-2.729l-1.471-.627-1.65-2.253-2.066 1.399h-2.104l.177 2.993 1.246.197 3.207.202 1.53 1.635-.651 2.435-.88 1.001h-1.806l-2.145-.815v1.849l.496 1.028-.54.643-1.259.978-1.039.185V46z"/>
    </g>
</svg>
