<svg xmlns="http://www.w3.org/2000/svg" width="41" height="33" viewBox="0 0 41 33">
    <g fill="none" fill-rule="evenodd">
        <path fill="#D3E5FB" d="M4 24.552L22.355 6 26 13.833c-2.58-.412-5.946.589-10.096 3.004S8.323 23.307 5.61 29L4 24.552z"/>
        <path fill="#F00" fill-rule="nonzero" stroke="#4A4A4A" stroke-width="2" d="M5.827 28.582l25.66-5.419L21.093 4.924 3.385 24.358l2.442 4.224zm14.551-2.578l-.03.208c-.477 3.362-1.842 5.287-4.101 5.708-2.26.422-4.127-.831-5.572-3.696l-.078-.154-4.554.961.716 1.226-.416.245L2 23.066l.416-.245.67 1.148L20.821 4.505l-.736-1.289.418-.24.66 1.154.02-.022L32.234 23.5l-.013.003.818 1.433-.418.24-.896-1.569-11.348 2.397zm-.502.106l-8.79 1.857.019.038c1.358 2.691 3.033 3.816 5.054 3.44 2.022-.378 3.261-2.124 3.712-5.302l.005-.033zM30.728 2l.39.283-3.416 4.75-.391-.284L30.728 2zm5.213 6.302l.232.424-5.245 2.896-.232-.425 5.245-2.895zm-2.967 8.335l-.042-.482 6.026-.526.042.482-6.026.526z"/>
    </g>
</svg>
