<svg xmlns="http://www.w3.org/2000/svg" width="29" height="30" viewBox="0 0 29 30">
    <g fill="none" fill-rule="evenodd">
        <path fill="#000" fill-rule="nonzero" d="M2.813 13.766c-.518 0-.938.407-.938.91v12.077c0 .502.42.91.938.91h1.071c.518 0 .938-.408.938-.91V14.675c0-.502-.42-.909-.938-.909H2.813zm3.264-.798c2.188-2.126 3.622-3.883 4.297-5.239.684-1.373.971-3.113.845-5.229l-.014-.233.104-.21C11.957.741 12.92 0 14.153 0c1.224 0 2.327.857 3.4 2.442l.092.135.037.159c.38 1.59.55 2.821.504 3.722-.039.75-.285 2.263-.743 4.58h5.121c3.107 0 5.626 2.442 5.626 5.454 0 .46-.06.919-.18 1.365l-2.365 8.878c-.314 1.177-1.394 2.01-2.647 2.044l-9.18.24-.11-.003-7.555-.65a2.838 2.838 0 0 1-2.269 1.115H2.813C1.259 29.48 0 28.259 0 26.753V14.675c0-1.506 1.26-2.727 2.813-2.727h1.071c.887 0 1.678.398 2.193 1.02zm.62 1.964v11.655l7.124.614 9.126-.24a.932.932 0 0 0 .882-.681l2.366-8.878c.08-.297.12-.603.12-.91 0-2.008-1.68-3.636-3.75-3.636h-7.4l.221-1.085c.578-2.842.889-4.664.927-5.403.035-.673-.103-1.702-.42-3.062-.72-1.03-1.327-1.488-1.74-1.488-.38 0-.718.233-1.049.825.107 2.298-.236 4.259-1.041 5.877-.815 1.636-2.46 3.627-4.941 6.005l-.425.407z"/>
        <path fill="#D3E5FB" d="M1.875 13.636h2.813v13.636H1.875z"/>
    </g>
</svg>
