<svg xmlns="http://www.w3.org/2000/svg" width="18" height="18" viewBox="0 0 18 18">
    <path fill="#FFF" fill-rule="evenodd" d="M15.86 0H2.14C.958 0 0 .955 0 2.135v13.73C0 17.045.958 18 2.14 18h13.72c1.182 0 2.14-.956 2.14-2.135V2.135C18 .955 17.042 0 15.86 0zm-2.922 2.812c0-.31.252-.562.562-.562h1.687c.311 0 .563.252.563.562V4.5c0 .31-.252.562-.563.562H13.5a.562.562 0 0 1-.562-.562V2.812zM9.02 5.567a3.458 3.458 0 0 1 3.462 3.454 3.458 3.458 0 0 1-3.462 3.453A3.457 3.457 0 0 1 5.56 9.021a3.458 3.458 0 0 1 3.46-3.454zm7.292 10.183c0 .31-.252.563-.563.563H2.25a.563.563 0 0 1-.563-.563V7.312h2.25c-.293.422-.392 1.21-.392 1.709 0 3.012 2.457 5.463 5.476 5.463 3.02 0 5.476-2.451 5.476-5.463 0-.5-.071-1.275-.434-1.709h2.25v8.438z"/>
</svg>
