<svg xmlns="http://www.w3.org/2000/svg" width="18" height="18" viewBox="0 0 18 18">
    <path fill="#FFF" fill-rule="evenodd" d="M3 0h12a3 3 0 0 1 3 3v12a3 3 0 0 1-3 3H3a3 3 0 0 1-3-3V3a3 3 0 0 1 3-3zm12.252 3.944c-.5.304-1.052.524-1.642.642a2.55 2.55 0 0 0-1.887-.836c-1.426 0-2.584 1.187-2.584 2.65 0 .209.022.41.067.604-2.149-.11-4.053-1.164-5.329-2.77-.223.393-.35.849-.35 1.334 0 .92.456 1.73 1.15 2.206a2.538 2.538 0 0 1-1.171-.33v.032c0 1.285.89 2.356 2.074 2.599a2.519 2.519 0 0 1-1.168.046c.33 1.053 1.284 1.82 2.415 1.84A5.105 5.105 0 0 1 3 13.061a7.196 7.196 0 0 0 3.963 1.189c4.755 0 7.354-4.038 7.354-7.542 0-.115-.002-.23-.006-.343.505-.374.944-.84 1.289-1.372-.463.21-.962.353-1.484.417a2.646 2.646 0 0 0 1.136-1.466z"/>
</svg>
