<svg xmlns="http://www.w3.org/2000/svg" width="270" height="270" viewBox="0 0 270 270">
    <defs>
        <linearGradient id="a" x1="0%" y1="100%" y2="0%">
            <stop offset="0%" stop-color="#6441A5"/>
            <stop offset="100%" stop-color="#452260"/>
        </linearGradient>
    </defs>
    <path fill="url(#a)" fill-rule="evenodd" d="M5 250a5 5 0 1 1 0-10 5 5 0 0 1 0 10zm0 160a5 5 0 1 1 0-10 5 5 0 0 1 0 10zm0-80a5 5 0 1 1 0-10 5 5 0 0 1 0 10zm0 160a5 5 0 1 1 0-10 5 5 0 0 1 0 10zm0-200a5 5 0 1 1 0-10 5 5 0 0 1 0 10zm0 160a5 5 0 1 1 0-10 5 5 0 0 1 0 10zm0-80a5 5 0 1 1 0-10 5 5 0 0 1 0 10zm0-100a5 5 0 1 1 0-10 5 5 0 0 1 0 10zm0 160a5 5 0 1 1 0-10 5 5 0 0 1 0 10zm0-80a5 5 0 1 1 0-10 5 5 0 0 1 0 10zm0 160a5 5 0 1 1 0-10 5 5 0 0 1 0 10zm0-200a5 5 0 1 1 0-10 5 5 0 0 1 0 10zm0 160a5 5 0 1 1 0-10 5 5 0 0 1 0 10zm0-80a5 5 0 1 1 0-10 5 5 0 0 1 0 10zm80-140a5 5 0 1 1 0-10 5 5 0 0 1 0 10zm0 160a5 5 0 1 1 0-10 5 5 0 0 1 0 10zm0-80a5 5 0 1 1 0-10 5 5 0 0 1 0 10zm0 160a5 5 0 1 1 0-10 5 5 0 0 1 0 10zm0-200a5 5 0 1 1 0-10 5 5 0 0 1 0 10zm0 160a5 5 0 1 1 0-10 5 5 0 0 1 0 10zm0-80a5 5 0 1 1 0-10 5 5 0 0 1 0 10zm0-100a5 5 0 1 1 0-10 5 5 0 0 1 0 10zm0 160a5 5 0 1 1 0-10 5 5 0 0 1 0 10zm0-80a5 5 0 1 1 0-10 5 5 0 0 1 0 10zm0 160a5 5 0 1 1 0-10 5 5 0 0 1 0 10zm0-200a5 5 0 1 1 0-10 5 5 0 0 1 0 10zm0 160a5 5 0 1 1 0-10 5 5 0 0 1 0 10zm0-80a5 5 0 1 1 0-10 5 5 0 0 1 0 10zm80-140a5 5 0 1 1 0-10 5 5 0 0 1 0 10zm0 160a5 5 0 1 1 0-10 5 5 0 0 1 0 10zm0-80a5 5 0 1 1 0-10 5 5 0 0 1 0 10zm0 160a5 5 0 1 1 0-10 5 5 0 0 1 0 10zm0-200a5 5 0 1 1 0-10 5 5 0 0 1 0 10zm0 160a5 5 0 1 1 0-10 5 5 0 0 1 0 10zm0-80a5 5 0 1 1 0-10 5 5 0 0 1 0 10zm0-100a5 5 0 1 1 0-10 5 5 0 0 1 0 10zm0 160a5 5 0 1 1 0-10 5 5 0 0 1 0 10zm0-80a5 5 0 1 1 0-10 5 5 0 0 1 0 10zm0 160a5 5 0 1 1 0-10 5 5 0 0 1 0 10zm0-200a5 5 0 1 1 0-10 5 5 0 0 1 0 10zm0 160a5 5 0 1 1 0-10 5 5 0 0 1 0 10zm0-80a5 5 0 1 1 0-10 5 5 0 0 1 0 10zM45 250a5 5 0 1 1 0-10 5 5 0 0 1 0 10zm0 160a5 5 0 1 1 0-10 5 5 0 0 1 0 10zm0-80a5 5 0 1 1 0-10 5 5 0 0 1 0 10zm0 160a5 5 0 1 1 0-10 5 5 0 0 1 0 10zm0-200a5 5 0 1 1 0-10 5 5 0 0 1 0 10zm0 160a5 5 0 1 1 0-10 5 5 0 0 1 0 10zm0-80a5 5 0 1 1 0-10 5 5 0 0 1 0 10zm0-100a5 5 0 1 1 0-10 5 5 0 0 1 0 10zm0 160a5 5 0 1 1 0-10 5 5 0 0 1 0 10zm0-80a5 5 0 1 1 0-10 5 5 0 0 1 0 10zm0 160a5 5 0 1 1 0-10 5 5 0 0 1 0 10zm0-200a5 5 0 1 1 0-10 5 5 0 0 1 0 10zm0 160a5 5 0 1 1 0-10 5 5 0 0 1 0 10zm0-80a5 5 0 1 1 0-10 5 5 0 0 1 0 10zm80-140a5 5 0 1 1 0-10 5 5 0 0 1 0 10zm0 160a5 5 0 1 1 0-10 5 5 0 0 1 0 10zm0-80a5 5 0 1 1 0-10 5 5 0 0 1 0 10zm0 160a5 5 0 1 1 0-10 5 5 0 0 1 0 10zm0-200a5 5 0 1 1 0-10 5 5 0 0 1 0 10zm0 160a5 5 0 1 1 0-10 5 5 0 0 1 0 10zm0-80a5 5 0 1 1 0-10 5 5 0 0 1 0 10zm0-100a5 5 0 1 1 0-10 5 5 0 0 1 0 10zm0 160a5 5 0 1 1 0-10 5 5 0 0 1 0 10zm0-80a5 5 0 1 1 0-10 5 5 0 0 1 0 10zm0 160a5 5 0 1 1 0-10 5 5 0 0 1 0 10zm0-200a5 5 0 1 1 0-10 5 5 0 0 1 0 10zm0 160a5 5 0 1 1 0-10 5 5 0 0 1 0 10zm0-80a5 5 0 1 1 0-10 5 5 0 0 1 0 10zm80-140a5 5 0 1 1 0-10 5 5 0 0 1 0 10zm0 160a5 5 0 1 1 0-10 5 5 0 0 1 0 10zm0-80a5 5 0 1 1 0-10 5 5 0 0 1 0 10zm0 160a5 5 0 1 1 0-10 5 5 0 0 1 0 10zm0-200a5 5 0 1 1 0-10 5 5 0 0 1 0 10zm0 160a5 5 0 1 1 0-10 5 5 0 0 1 0 10zm0-80a5 5 0 1 1 0-10 5 5 0 0 1 0 10zm0-100a5 5 0 1 1 0-10 5 5 0 0 1 0 10zm0 160a5 5 0 1 1 0-10 5 5 0 0 1 0 10zm0-80a5 5 0 1 1 0-10 5 5 0 0 1 0 10zm0 160a5 5 0 1 1 0-10 5 5 0 0 1 0 10zm0-200a5 5 0 1 1 0-10 5 5 0 0 1 0 10zm0 160a5 5 0 1 1 0-10 5 5 0 0 1 0 10zm0-80a5 5 0 1 1 0-10 5 5 0 0 1 0 10zm40-140a5 5 0 1 1 0-10 5 5 0 0 1 0 10zm0 160a5 5 0 1 1 0-10 5 5 0 0 1 0 10zm0-80a5 5 0 1 1 0-10 5 5 0 0 1 0 10zm0 160a5 5 0 1 1 0-10 5 5 0 0 1 0 10zm0-200a5 5 0 1 1 0-10 5 5 0 0 1 0 10zm0 160a5 5 0 1 1 0-10 5 5 0 0 1 0 10zm0-80a5 5 0 1 1 0-10 5 5 0 0 1 0 10zm0-100a5 5 0 1 1 0-10 5 5 0 0 1 0 10zm0 160a5 5 0 1 1 0-10 5 5 0 0 1 0 10zm0-80a5 5 0 1 1 0-10 5 5 0 0 1 0 10zm0 160a5 5 0 1 1 0-10 5 5 0 0 1 0 10zm0-200a5 5 0 1 1 0-10 5 5 0 0 1 0 10zm0 160a5 5 0 1 1 0-10 5 5 0 0 1 0 10zm0-80a5 5 0 1 1 0-10 5 5 0 0 1 0 10zM25 250a5 5 0 1 1 0-10 5 5 0 0 1 0 10zm0 160a5 5 0 1 1 0-10 5 5 0 0 1 0 10zm0-80a5 5 0 1 1 0-10 5 5 0 0 1 0 10zm0 160a5 5 0 1 1 0-10 5 5 0 0 1 0 10zm0-200a5 5 0 1 1 0-10 5 5 0 0 1 0 10zm0 160a5 5 0 1 1 0-10 5 5 0 0 1 0 10zm0-80a5 5 0 1 1 0-10 5 5 0 0 1 0 10zm0-100a5 5 0 1 1 0-10 5 5 0 0 1 0 10zm0 160a5 5 0 1 1 0-10 5 5 0 0 1 0 10zm0-80a5 5 0 1 1 0-10 5 5 0 0 1 0 10zm0 160a5 5 0 1 1 0-10 5 5 0 0 1 0 10zm0-200a5 5 0 1 1 0-10 5 5 0 0 1 0 10zm0 160a5 5 0 1 1 0-10 5 5 0 0 1 0 10zm0-80a5 5 0 1 1 0-10 5 5 0 0 1 0 10zm80-140a5 5 0 1 1 0-10 5 5 0 0 1 0 10zm0 160a5 5 0 1 1 0-10 5 5 0 0 1 0 10zm0-80a5 5 0 1 1 0-10 5 5 0 0 1 0 10zm0 160a5 5 0 1 1 0-10 5 5 0 0 1 0 10zm0-200a5 5 0 1 1 0-10 5 5 0 0 1 0 10zm0 160a5 5 0 1 1 0-10 5 5 0 0 1 0 10zm0-80a5 5 0 1 1 0-10 5 5 0 0 1 0 10zm0-100a5 5 0 1 1 0-10 5 5 0 0 1 0 10zm0 160a5 5 0 1 1 0-10 5 5 0 0 1 0 10zm0-80a5 5 0 1 1 0-10 5 5 0 0 1 0 10zm0 160a5 5 0 1 1 0-10 5 5 0 0 1 0 10zm0-200a5 5 0 1 1 0-10 5 5 0 0 1 0 10zm0 160a5 5 0 1 1 0-10 5 5 0 0 1 0 10zm0-80a5 5 0 1 1 0-10 5 5 0 0 1 0 10zm80-140a5 5 0 1 1 0-10 5 5 0 0 1 0 10zm0 160a5 5 0 1 1 0-10 5 5 0 0 1 0 10zm0-80a5 5 0 1 1 0-10 5 5 0 0 1 0 10zm0 160a5 5 0 1 1 0-10 5 5 0 0 1 0 10zm0-200a5 5 0 1 1 0-10 5 5 0 0 1 0 10zm0 160a5 5 0 1 1 0-10 5 5 0 0 1 0 10zm0-80a5 5 0 1 1 0-10 5 5 0 0 1 0 10zm0-100a5 5 0 1 1 0-10 5 5 0 0 1 0 10zm0 160a5 5 0 1 1 0-10 5 5 0 0 1 0 10zm0-80a5 5 0 1 1 0-10 5 5 0 0 1 0 10zm0 160a5 5 0 1 1 0-10 5 5 0 0 1 0 10zm0-200a5 5 0 1 1 0-10 5 5 0 0 1 0 10zm0 160a5 5 0 1 1 0-10 5 5 0 0 1 0 10zm0-80a5 5 0 1 1 0-10 5 5 0 0 1 0 10zM65 250a5 5 0 1 1 0-10 5 5 0 0 1 0 10zm0 160a5 5 0 1 1 0-10 5 5 0 0 1 0 10zm0-80a5 5 0 1 1 0-10 5 5 0 0 1 0 10zm0 160a5 5 0 1 1 0-10 5 5 0 0 1 0 10zm0-200a5 5 0 1 1 0-10 5 5 0 0 1 0 10zm0 160a5 5 0 1 1 0-10 5 5 0 0 1 0 10zm0-80a5 5 0 1 1 0-10 5 5 0 0 1 0 10zm0-100a5 5 0 1 1 0-10 5 5 0 0 1 0 10zm0 160a5 5 0 1 1 0-10 5 5 0 0 1 0 10zm0-80a5 5 0 1 1 0-10 5 5 0 0 1 0 10zm0 160a5 5 0 1 1 0-10 5 5 0 0 1 0 10zm0-200a5 5 0 1 1 0-10 5 5 0 0 1 0 10zm0 160a5 5 0 1 1 0-10 5 5 0 0 1 0 10zm0-80a5 5 0 1 1 0-10 5 5 0 0 1 0 10zm80-140a5 5 0 1 1 0-10 5 5 0 0 1 0 10zm0 160a5 5 0 1 1 0-10 5 5 0 0 1 0 10zm0-80a5 5 0 1 1 0-10 5 5 0 0 1 0 10zm0 160a5 5 0 1 1 0-10 5 5 0 0 1 0 10zm0-200a5 5 0 1 1 0-10 5 5 0 0 1 0 10zm0 160a5 5 0 1 1 0-10 5 5 0 0 1 0 10zm0-80a5 5 0 1 1 0-10 5 5 0 0 1 0 10zm0-100a5 5 0 1 1 0-10 5 5 0 0 1 0 10zm0 160a5 5 0 1 1 0-10 5 5 0 0 1 0 10zm0-80a5 5 0 1 1 0-10 5 5 0 0 1 0 10zm0 160a5 5 0 1 1 0-10 5 5 0 0 1 0 10zm0-200a5 5 0 1 1 0-10 5 5 0 0 1 0 10zm0 160a5 5 0 1 1 0-10 5 5 0 0 1 0 10zm0-80a5 5 0 1 1 0-10 5 5 0 0 1 0 10zm80-140a5 5 0 1 1 0-10 5 5 0 0 1 0 10zm0 160a5 5 0 1 1 0-10 5 5 0 0 1 0 10zm0-80a5 5 0 1 1 0-10 5 5 0 0 1 0 10zm0 160a5 5 0 1 1 0-10 5 5 0 0 1 0 10zm0-200a5 5 0 1 1 0-10 5 5 0 0 1 0 10zm0 160a5 5 0 1 1 0-10 5 5 0 0 1 0 10zm0-80a5 5 0 1 1 0-10 5 5 0 0 1 0 10zm0-100a5 5 0 1 1 0-10 5 5 0 0 1 0 10zm0 160a5 5 0 1 1 0-10 5 5 0 0 1 0 10zm0-80a5 5 0 1 1 0-10 5 5 0 0 1 0 10zm0 160a5 5 0 1 1 0-10 5 5 0 0 1 0 10zm0-200a5 5 0 1 1 0-10 5 5 0 0 1 0 10zm0 160a5 5 0 1 1 0-10 5 5 0 0 1 0 10zm0-80a5 5 0 1 1 0-10 5 5 0 0 1 0 10zm40-140a5 5 0 1 1 0-10 5 5 0 0 1 0 10zm0 160a5 5 0 1 1 0-10 5 5 0 0 1 0 10zm0-80a5 5 0 1 1 0-10 5 5 0 0 1 0 10zm0 160a5 5 0 1 1 0-10 5 5 0 0 1 0 10zm0-200a5 5 0 1 1 0-10 5 5 0 0 1 0 10zm0 160a5 5 0 1 1 0-10 5 5 0 0 1 0 10zm0-80a5 5 0 1 1 0-10 5 5 0 0 1 0 10zm0-100a5 5 0 1 1 0-10 5 5 0 0 1 0 10zm0 160a5 5 0 1 1 0-10 5 5 0 0 1 0 10zm0-80a5 5 0 1 1 0-10 5 5 0 0 1 0 10zm0 160a5 5 0 1 1 0-10 5 5 0 0 1 0 10zm0-200a5 5 0 1 1 0-10 5 5 0 0 1 0 10zm0 160a5 5 0 1 1 0-10 5 5 0 0 1 0 10zm0-80a5 5 0 1 1 0-10 5 5 0 0 1 0 10z" transform="translate(0 -240)"/>
</svg>
