<svg xmlns="http://www.w3.org/2000/svg" width="30" height="30" viewBox="0 0 30 30">
    <path fill="#43619C" fill-rule="evenodd" d="M15.002 0C6.717 0 0 6.717 0 15.002 0 23.283 6.717 30 15.002 30 23.283 30 30 23.283 30 15.002 30 6.717 23.283 0 15.002 0zm7.297 21.343c0 .443-.217.731-.655.731h-3.69v-5.531h1.876l.285-2.37h-2.162V12.94c0-.633.17-1.138 1.079-1.138h1.292V9.917c-.395-.028-1.008-.087-1.81-.087-1.667 0-2.931 1.02-2.931 2.892v1.45h-1.976v2.37h1.976v5.532H8.74c-.443 0-.664-.288-.664-.73V8.438c0-.442.221-.983.664-.983h12.904c.438 0 .655.54.655.983v12.904z"/>
</svg>
