<svg xmlns="http://www.w3.org/2000/svg" width="68" height="68" viewBox="0 0 68 68">
    <defs>
        <linearGradient id="a" x1="0%" y1="100%" y2="0%">
            <stop offset="0%" stop-color="#6441A5"/>
            <stop offset="100%" stop-color="#452260"/>
        </linearGradient>
    </defs>
    <g fill="url(#a)" fill-rule="evenodd" transform="translate(-235 -744)">
        <path d="M267.251 811.04c-17.784 0-32.25-14.469-32.25-32.252 0-8.05 2.618-15.088 7.783-20.919a.895.895 0 1 1 1.341 1.188c-4.866 5.493-7.334 12.132-7.334 19.731 0 16.795 13.665 30.46 30.46 30.46 16.02 0 29.371-12.51 30.396-28.479a1.007 1.007 0 0 0-.275-.763 1.009 1.009 0 0 0-.743-.322H269.16a2.808 2.808 0 0 1-2.805-2.805v-27.47c0-.285-.115-.549-.324-.745a.988.988 0 0 0-.754-.273 30.261 30.261 0 0 0-16.666 6.305.896.896 0 0 1-1.098-1.417 32.057 32.057 0 0 1 17.65-6.676 2.818 2.818 0 0 1 2.094.754c.566.53.89 1.278.89 2.052v27.47c0 .558.454 1.013 1.013 1.013h27.47c.772 0 1.52.324 2.05.89.53.564.805 1.331.755 2.103-1.085 16.908-15.222 30.154-32.184 30.154"/>
        <path d="M272.499 746.032l.065 27.208a.237.237 0 0 0 .235.235l27.208.065a.244.244 0 0 0 .179-.077.204.204 0 0 0 .06-.15c-.573-14.859-12.661-26.948-27.52-27.52a.201.201 0 0 0-.15.06.244.244 0 0 0-.077.18m27.508 29.3h-.004l-27.208-.067a2.032 2.032 0 0 1-2.023-2.022l-.065-27.208a2.05 2.05 0 0 1 .625-1.473 1.962 1.962 0 0 1 1.464-.56c15.788.608 28.632 13.452 29.24 29.24a1.982 1.982 0 0 1-.56 1.464 2.052 2.052 0 0 1-1.47.625"/>
    </g>
</svg>
