<?xml version="1.0" encoding="UTF-8"?>
<svg width="49px" height="49px" viewBox="0 0 49 49" version="1.1" xmlns="http://www.w3.org/2000/svg" xmlns:xlink="http://www.w3.org/1999/xlink">
    <!-- Generator: sketchtool 47.1 (45422) - http://www.bohemiancoding.com/sketch -->
    <title>B86C4B9E-6294-4088-B443-D1EEC8B0F3A8</title>
    <desc>Created with sketchtool.</desc>
    <defs></defs>
    <g id="Page-1" stroke="none" stroke-width="1" fill="none" fill-rule="evenodd">
        <g id="Serwinmedia" transform="translate(-696.000000, -1983.000000)" fill-rule="nonzero">
            <g id="cards_services" transform="translate(0.000000, 1420.000000)">
                <g id="card_trust" transform="translate(535.000000, 500.000000)">
                    <g id="ic_clock" transform="translate(162.000000, 64.000000)">
                        <path d="M23.5,47 C10.5213084,47 0,36.4786916 0,23.5 C0,10.5213084 10.5213084,0 23.5,0 C36.4786916,0 47,10.5213084 47,23.5 C47,36.4786916 36.4786916,47 23.5,47 Z M23.5,46.6083333 C36.2623801,46.6083333 46.6083333,36.2623801 46.6083333,23.5 C46.6083333,10.7376199 36.2623801,0.391666667 23.5,0.391666667 C10.7376199,0.391666667 0.391666667,10.7376199 0.391666667,23.5 C0.391666667,36.2623801 10.7376199,46.6083333 23.5,46.6083333 Z" id="Oval-2" stroke="#131313" fill="#000000"></path>
                        <path d="M24,23 L24,6 L22,6 L22,24 L22,25 L34,25 L34,23 L24,23 Z" id="Combined-Shape" fill="#0D0D0D"></path>
                    </g>
                </g>
            </g>
        </g>
    </g>
</svg>