<svg xmlns="http://www.w3.org/2000/svg" width="63" height="67" viewBox="0 0 63 67">
    <defs>
        <linearGradient id="a" x1="0%" y1="100%" y2="0%">
            <stop offset="0%" stop-color="#6441A5"/>
            <stop offset="100%" stop-color="#452260"/>
        </linearGradient>
    </defs>
    <g fill="url(#a)" fill-rule="evenodd" transform="translate(-742 -953)">
        <path d="M766.818 1019.133h-18.771a6.054 6.054 0 0 1-6.047-6.047v-21.072a1 1 0 1 1 2 0v21.072a4.052 4.052 0 0 0 4.047 4.047h18.77a4.052 4.052 0 0 0 4.048-4.047V971.67a4.052 4.052 0 0 0-4.047-4.047h-18.771A4.052 4.052 0 0 0 744 971.67V987a1 1 0 1 1-2 0v-15.33a6.054 6.054 0 0 1 6.047-6.047h18.77a6.054 6.054 0 0 1 6.048 6.047v41.415a6.054 6.054 0 0 1-6.047 6.047"/>
        <path d="M765.907 976.415l-17.086.003.003 30.64 17.083-.003v-30.64zm.003 30.64v1l.001-1zm0 2h-17.089a2 2 0 0 1-1.997-1.997v-30.643a2 2 0 0 1 1.997-1.997h17.09a2 2 0 0 1 1.996 1.997v30.643a2 2 0 0 1-1.997 1.997zM759.144 971h-4a1 1 0 0 1 0-2h4a1 1 0 0 1 0 2M757.68 1011.628a.893.893 0 0 0 0 1.783.892.892 0 0 0 0-1.783m0 3.783a2.894 2.894 0 0 1-2.89-2.891 2.895 2.895 0 0 1 2.89-2.892 2.895 2.895 0 0 1 2.892 2.892 2.894 2.894 0 0 1-2.891 2.89"/>
        <path d="M800.845 1018.546h-25.009a1 1 0 1 1 0-2h25.01c.987 0 1.791-.805 1.791-1.793v-57.96c0-.99-.804-1.793-1.792-1.793H761.04c-.988 0-1.792.804-1.792 1.793v5.718a1 1 0 0 1-2 0v-5.718A3.796 3.796 0 0 1 761.04 953h39.805a3.796 3.796 0 0 1 3.792 3.793v57.96a3.796 3.796 0 0 1-3.792 3.793"/>
        <path d="M781.271 1011.477a.893.893 0 0 0 0 1.783.893.893 0 0 0 0-1.783m0 3.783a2.894 2.894 0 0 1-2.891-2.891 2.895 2.895 0 0 1 2.891-2.892 2.895 2.895 0 0 1 2.892 2.892 2.895 2.895 0 0 1-2.892 2.89M799.144 1008h-21a1 1 0 1 1 0-2h19v-43h-34a1 1 0 0 1 0-2h36v47zM781.144 959h-3a1 1 0 0 1 0-2h3a1 1 0 0 1 0 2"/>
    </g>
</svg>
