<svg xmlns="http://www.w3.org/2000/svg" width="99" height="83" viewBox="0 0 99 83">
    <g fill="none" fill-rule="evenodd" stroke="#FFF" stroke-width="2">
        <path d="M92.562 65H6.438A5.438 5.438 0 0 1 1 59.562V6.438A5.438 5.438 0 0 1 6.438 1h86.124A5.438 5.438 0 0 1 98 6.438v53.124A5.438 5.438 0 0 1 92.562 65zM1.083 54.917h59.5M90.333 54.917h7M68.333 52.417v5M76.333 52.417v5M84.333 52.583v5M42.167 65.167v7.5M57.5 65.167v7.5M65.5 72.75h-32l-6.724 8.005a.2.2 0 0 0 .153.328h44.989a.196.196 0 0 0 .152-.321L65.5 72.75z"/>
    </g>
</svg>
