<?xml version="1.0" encoding="UTF-8"?>
<svg width="49px" height="49px" viewBox="0 0 49 49" version="1.1" xmlns="http://www.w3.org/2000/svg" xmlns:xlink="http://www.w3.org/1999/xlink">
    <!-- Generator: sketchtool 47.1 (45422) - http://www.bohemiancoding.com/sketch -->
    <title>4FCC75D6-81B6-4F48-81D9-B9E22B9C7096</title>
    <desc>Created with sketchtool.</desc>
    <defs></defs>
    <g id="Page-1" stroke="none" stroke-width="1" fill="none" fill-rule="evenodd">
        <g id="Serwinmedia" transform="translate(-1096.000000, -1483.000000)" stroke="#131313" fill-rule="nonzero" fill="#000000">
            <g id="cards_services" transform="translate(0.000000, 1420.000000)">
                <g id="card_global_scale" transform="translate(935.000000, 0.000000)">
                    <g id="ic_earth" transform="translate(162.000000, 64.000000)">
                        <path d="M23.5,47 C10.5213084,47 0,36.4786916 0,23.5 C0,10.5213084 10.5213084,0 23.5,0 C36.4786916,0 47,10.5213084 47,23.5 C47,36.4786916 36.4786916,47 23.5,47 Z M23.5,46.6083333 C36.2623801,46.6083333 46.6083333,36.2623801 46.6083333,23.5 C46.6083333,10.7376199 36.2623801,0.391666667 23.5,0.391666667 C10.7376199,0.391666667 0.391666667,10.7376199 0.391666667,23.5 C0.391666667,36.2623801 10.7376199,46.6083333 23.5,46.6083333 Z" id="Oval-2"></path>
                        <path d="M29.9051765,10.1138122 C29.5133893,10.8059023 29.3748423,11.5495708 29.4906249,12.3382202 L29.5088382,12.3960318 C30.8699617,15.1147847 31.6007602,16.7670082 31.6863141,17.3038474 C31.8209324,18.1485591 31.3584825,18.6130615 30.0770643,18.6130615 C29.1092721,18.6130615 27.9780733,18.1238916 26.6882408,17.1362203 C24.5989178,14.4869957 23.442024,13.0618004 23.1796481,12.8168076 C22.8764603,12.5337067 22.3631614,12.4434219 21.6432084,12.5222351 L17.4514113,16.3151613 C16.7542196,16.6088791 16.2541839,16.7546987 15.9673206,16.7546987 C15.6867451,16.7546987 15.2360245,16.6139473 14.6283928,16.3293458 C14.0207832,15.3787533 13.3446127,14.3724363 12.5998702,13.3103562 C11.8455905,12.234675 11.0658251,11.1657594 10.260575,10.1036095 C10.0079326,9.64592223 9.68831223,9.37794022 9.30111408,9.32057249 C8.95219655,9.26887646 7.92793205,9.36083864 6.17919664,9.59546735 L4.19462489,9.88322522 L4,9.91144645 L4.0573935,10.2942462 L6.23448703,9.97856065 C7.92896985,9.75122242 8.94871589,9.65966592 9.24249808,9.70319304 C9.49437274,9.74051108 9.72070298,9.93205142 9.92087197,10.2993161 C10.7419653,11.3856447 11.5217645,12.4544581 12.2759608,13.5300203 C13.0299818,14.6053325 13.713133,15.6228187 14.3254029,16.5824381 L14.4065235,16.653842 C15.0892041,16.9779178 15.6046818,17.1416372 15.9673206,17.1416372 C16.3271711,17.1416372 16.8786339,16.9794564 17.6384509,16.6572677 L21.7509752,12.9001957 C22.3310395,12.8445374 22.7159235,12.9173762 22.9087319,13.0974105 C23.1487532,13.3215298 24.3227021,14.7679259 26.3923933,17.3924557 C27.7874991,18.4722845 29.0026713,19 30.0770643,19 C31.5883987,19 32.2491204,18.3363459 32.0750274,17.2439357 C31.9806414,16.6516763 31.2524828,15.0041479 29.8757816,12.2529865 C29.7800786,11.559381 29.9041208,10.9111675 30.248952,10.302025 C30.6083663,9.66712157 31.3678418,8.78934018 32.5244761,7.67656611 C32.9694191,6.98190794 33.0971892,6.33468227 32.9284467,5.70873641 C32.8360284,5.3659129 32.6776285,5.13225863 32.3700785,4.81381856 C32.3699543,4.81369 32.174217,4.61398462 32.1186636,4.55484575 C31.8226834,4.2397628 31.643057,3.9594877 31.5150396,3.54971695 C31.2831914,2.80759455 31.2831914,2.05815129 31.5154266,1.29644893 L31.5719282,1.11113071 L31.1950467,1 L31.1385451,1.18531821 C30.8840786,2.01993661 30.8840786,2.84759519 31.1389322,3.66335571 C31.2861063,4.13444531 31.4965543,4.46281198 31.8296543,4.81741039 C31.8885663,4.88012462 32.0872108,5.08279616 32.0847927,5.08029247 C32.3509763,5.35590133 32.4759921,5.54031102 32.5481269,5.80789336 C32.6857747,6.31849428 32.5832909,6.85146703 32.2320446,7.41661297 C31.0601407,8.5455471 30.2854714,9.44202341 29.9051765,10.1138122 Z" id="Line-6"></path>
                        <path d="M8.15608189,29.5998352 L9.11415308,30.3293883 L10.7133682,31.1222717 L9.78104207,34.1888391 L10.913721,34.5408558 L12.2046959,32.4970825 L12.2308452,32.4643412 L13.5013956,31.1864634 L11.3439286,27.3111994 L9.47950535,26.6077503 L7.1028051,26.4089748 L6.48437284,29.2523735 L8.15608189,29.5998352 Z M6,29.5408839 L6.7701336,26 L9.57905454,26.2349243 L11.6425082,27.0134679 L14,31.2480183 L12.5512113,32.7051623 L11.1016484,35 L9.27751782,34.4330922 L10.2263572,31.31221 L8.89968365,30.6544514 L8.86593779,30.633537 L7.96827967,29.9499873 L6,29.5408839 Z" id="Line-7"></path>
                        <path d="M19.095191,29.5426912 L18.9855065,29.5762273 L19.0350534,29.5426912 L19.095191,29.5426912 Z M15.3870662,44 L15,44 L15,41.9365718 L16.2630222,41.7123404 L17.400004,40.8339247 L17.7698745,40.392938 L17.3424311,39.5066413 L17.3424311,37.0167953 L19.9462167,38.0061547 L21.502602,38.0061547 L22.2083791,37.2032949 L22.7827332,35.055344 L21.5012772,33.686291 L18.4314651,33.4922452 L16.8596576,33.2447163 L16.6404187,29.5426912 L19.0350534,29.5426912 L21.3142547,28 L23.1227025,30.4705528 L24.4226685,31.0242762 L26.919354,31.0242762 L28.1047443,29.9464217 L30.4654638,29.9464217 L33.9724956,33.7060808 L37.5113019,33.7060808 L40.0955717,32.3088256 L44,33.7871746 L43.860991,34.1426227 L40.1243824,32.727816 L37.6106421,34.0869375 L33.8023718,34.0869375 L30.2953401,30.3272785 L28.256205,30.3272785 L27.0708147,31.405133 L24.342484,31.405133 L22.8709953,30.7783491 L21.2215506,28.5250132 L19.1553286,29.923548 L17.0506964,29.923548 L17.2279792,32.9171109 L18.4744045,33.1141699 L21.6808775,33.3159807 L23.2109646,34.9506605 L22.559861,37.3856367 L21.6795737,38.3870115 L19.8740771,38.3870115 L17.7294973,37.5721363 L17.7294973,39.4208591 L18.2251162,40.4485165 L17.6852301,41.0922081 L16.4264078,42.0703402 L15.3870662,42.2548603 L15.3870662,44 Z" id="Line-8"></path>
                    </g>
                </g>
            </g>
        </g>
    </g>
</svg>