<svg xmlns="http://www.w3.org/2000/svg" width="65" height="65" viewBox="0 0 65 65">
    <defs>
        <linearGradient id="a" x1="0%" y1="100%" y2="0%">
            <stop offset="0%" stop-color="#6441A5"/>
            <stop offset="100%" stop-color="#452260"/>
        </linearGradient>
    </defs>
    <path fill="url(#a)" fill-rule="evenodd" d="M778.435 1245.185l.312-6.77-4.974-4.304-.218-.06c-2.479-.688-6.806-2.207-7.868-3.354-1.17-1.264-2.219-4.572-2.573-5.913.04-.993.272-2.692.755-3.439.383-.512 3.09-1.437 5.884-2.021l5.217 2.086.221-.01c1.523-.078 9.193-.491 10.507-.905.585-.19 2.31.335 3.337.649.616.187 1.15.349 1.57.432.526.178 2.091 2.009 3.426 3.993l-.677 11.16a30.48 30.48 0 0 1-14.919 8.456m-32.867-13.673c.277-1.21 1.116-5.137.999-7.72-.116-2.545 1.022-9.226 1.215-10.34 4.891-9.068 4.566-10.786 2.743-12.31-.095-.08-.192-.158-.281-.248-.924-.925-3.197-1.075-4.898-1.044a30.71 30.71 0 0 1 10.513-10.51l1.985 3.349 6.077 2.375c.22.085 1.6.603 3.077.603.74 0 1.501-.129 2.153-.506.595-.34 1.345-1.035 1.555-2.402.197-1.28.156-2.537.121-3.646-.063-1.95-.05-3.24.75-4.1 3.974.01 7.77.79 11.252 2.189l-1.175 5.748.048.212c0 .002.022.166-.21.309-.484.293-3.825 1.387-6.775 2.275l-.186.056-9.729 7.797-.088.302c-.043.147-.402 1.49.277 3.458.557 1.604 1.01 4.934 1.013 4.967l.09.3c.047.098.486.96 1.548 1.316.864.29 1.854.159 2.928-.394 1.592-.816 2.31-.338 2.317-.338l.13.115.161.064c.257.104 6.34 2.486 9.093-.893 1.32-1.623 2.832-3.291 4.036-3.362.278-.018.708.028 1.298.603 2.106 2.044 4.156 5.926 4.177 5.965l.161.306 9.65 4.375a30.347 30.347 0 0 1-6.074 13.863l.56-9.226-.185-.28c-1.173-1.786-3.367-4.83-4.877-5.13-.343-.07-.856-.225-1.398-.39-1.568-.475-3.344-1.015-4.527-.642-.767.242-6.105.61-9.785.802l-5.365-2.146-.294.06c-1.915.382-6.475 1.437-7.461 2.951-.986 1.52-1.08 4.314-1.088 4.627l-.003.138.034.133c.128.506 1.305 5 3.082 6.92 1.674 1.807 7.257 3.483 8.585 3.862l3.896 3.372-.29 6.293c-1.597.259-3.234.4-4.904.4-10.942 0-20.55-5.797-25.931-14.478m-1.353-29.596c2.092-.147 4.223.028 4.606.4.133.133.275.252.415.37.606.506 1.435 1.198-3.3 9.953l-.077.143-.028.16c-.058.323-1.41 7.952-1.273 10.94.065 1.411-.209 3.355-.49 4.915a30.307 30.307 0 0 1-3.058-13.297c0-4.88 1.158-9.49 3.205-13.584m24.603-12.737c.034 1.07.07 2.179-.099 3.275-.095.626-.37.85-.569.965-.95.55-2.893.007-3.497-.227l-5.433-2.125-1.6-2.7a30.249 30.249 0 0 1 11.58-3.261c-.467 1.247-.427 2.674-.382 4.073m33.172 26.321c0 .943-.05 1.874-.134 2.794l-8.46-3.834c-.555-1.012-2.397-4.23-4.39-6.165-.86-.834-1.812-1.23-2.815-1.168-1.868.11-3.541 1.718-5.48 4.099-1.472 1.807-5.211.894-6.677.34-.504-.338-1.984-1.039-4.383.195-1.065.548-1.523.264-1.685.078-.114-.803-.535-3.581-1.074-5.137-.319-.923-.322-1.616-.29-1.97l8.882-7.117c1.658-.501 6.197-1.9 7.063-2.432a2.336 2.336 0 0 0 1.154-2.213l1.011-4.946c10.215 4.931 17.278 15.394 17.278 27.476M771.5 1183c-17.92 0-32.5 14.579-32.5 32.5 0 17.92 14.58 32.5 32.5 32.5s32.5-14.58 32.5-32.5c0-17.921-14.58-32.5-32.5-32.5" transform="translate(-739 -1183)"/>
</svg>
