<svg xmlns="http://www.w3.org/2000/svg" xmlns:xlink="http://www.w3.org/1999/xlink" width="49" height="63" viewBox="0 0 49 63">
    <defs>
        <path id="a" d="M24.5 63H49V0H0v63z"/>
        <linearGradient id="b" x1="0%" y1="100%" y2="0%">
            <stop offset="0%" stop-color="#6441A5"/>
            <stop offset="100%" stop-color="#452260"/>
        </linearGradient>
    </defs>
    <g fill="none" fill-rule="evenodd">
        <mask id="c" fill="#fff">
            <use xlink:href="#a"/>
        </mask>
        <path fill="url(#b)" d="M14.987 24H34v-5.795C34 13.129 29.877 9 24.81 9c-5.413 0-9.825 4.41-9.836 9.831-.006 2.866.002 4.376.013 5.169zM36 26H13.612l-.293-.294c-.358-.359-.358-.359-.345-6.879C12.987 12.306 18.297 7 24.81 7 30.98 7 36 12.026 36 18.205V26zM21.656 52h5.285l-.745-8.218.44-.335c.92-.699 1.426-1.679 1.426-2.76a3.545 3.545 0 0 0-1.389-2.816 3.579 3.579 0 0 0-3.113-.625c-1.377.355-2.448 1.608-2.602 3.048-.149 1.401.521 2.357 1.111 2.913l.353.334L21.656 52zm5.51 2h-5.88a1.663 1.663 0 0 1-1.655-1.809l.714-7.888c-1.056-1.175-1.543-2.657-1.375-4.222.245-2.288 1.89-4.205 4.092-4.772 1.704-.436 3.467-.08 4.837.981a5.531 5.531 0 0 1 2.163 4.397c0 1.536-.627 2.932-1.777 3.987l.668 7.371A1.795 1.795 0 0 1 27.166 54zm16.085 9H6.071C2.722 63 0 60.496 0 57.418V30.749C0 27.655 2.74 25.038 6 25v-5.783c0-1.906.23-4.664.88-6.689a1 1 0 1 1 1.904.611C8.205 14.946 8 17.543 8 19.217V27H6.07C3.902 27 2 28.751 2 30.749v26.669C2 59.561 4.105 61 6.07 61h37.181c2.102 0 3.75-1.573 3.75-3.582V30.749A3.754 3.754 0 0 0 43.25 27h-1.25v-7.592C42 9.809 34.338 2 24.921 2h-.31c-4.108 0-11.308 2.364-13.7 6.215A1 1 0 0 1 9.213 7.16C12.077 2.55 20.136 0 24.613 0h.31C35.44 0 44 8.706 44 19.408v5.64a5.76 5.76 0 0 1 5 5.701v26.669C49 60.548 46.475 63 43.251 63z" mask="url(#c)"/>
    </g>
</svg>
