<svg xmlns="http://www.w3.org/2000/svg" xmlns:xlink="http://www.w3.org/1999/xlink" width="100" height="83" viewBox="0 0 100 83">
    <defs>
        <path id="a" d="M0 83.797h99.75V1H0z"/>
    </defs>
    <g fill="none" fill-rule="evenodd" transform="translate(0 -1)">
        <path stroke="#FFF" stroke-width="2" d="M42.746 82.797H4.755A3.755 3.755 0 0 1 1 79.043V5.755A3.755 3.755 0 0 1 4.755 2h37.99A3.754 3.754 0 0 1 46.5 5.755v73.288a3.754 3.754 0 0 1-3.754 3.754z"/>
        <mask id="b" fill="#fff">
            <use xlink:href="#a"/>
        </mask>
        <path stroke="#FFF" stroke-width="2" d="M4.894 73.585H42.25V9.335H4.894zM28.658 79.503h-9.65a1.092 1.092 0 0 1-1.092-1.092v-.816c0-.603.49-1.092 1.092-1.092h9.65c.603 0 1.092.489 1.092 1.092v.816c0 .603-.489 1.092-1.092 1.092zM18.417 5.17h10.667M47.57 33.836H95.37c1.868 0 3.38 1.533 3.38 3.424v38.319c0 1.89-1.512 3.424-3.38 3.424H46.584" mask="url(#b)"/>
        <path stroke="#FFF" stroke-width="2" d="M47.75 38.003h44v37.333h-44.5M94.917 50.17v10.666" mask="url(#b)"/>
    </g>
</svg>
