<svg xmlns="http://www.w3.org/2000/svg" xmlns:xlink="http://www.w3.org/1999/xlink" width="100" height="82" viewBox="0 0 100 82">
    <defs>
        <path id="a" d="M0 81.333h99.667V0H0z"/>
    </defs>
    <g fill="none" fill-rule="evenodd">
        <path stroke="#FFF" stroke-width="2" d="M96.648 66.667H3.018A2.02 2.02 0 0 1 1 64.647V3.02A2.02 2.02 0 0 1 3.019.999h93.629a2.02 2.02 0 0 1 2.019 2.02v61.629a2.02 2.02 0 0 1-2.02 2.019z"/>
        <mask id="b" fill="#fff">
            <use xlink:href="#a"/>
        </mask>
        <path stroke="#FFF" stroke-width="2" d="M12 36.5h35.167v-24H12z" mask="url(#b)"/>
        <path stroke="#FFF" stroke-width="2" d="M12.5 34.5L22.833 25l10.834 11.167M28.667 29.833L39.167 20l8 7.833M10.5 48.667H58M10.667 56.833H79.5M29.833 80.333h42M61.5 67.5V80M39.5 67.5V80M64.914 41.975L66 37.166l17-15.833 4.666 4.833-17 15.167-5.47.938a.245.245 0 0 1-.282-.296zM66.5 36.5l4.167 4.833" mask="url(#b)"/>
    </g>
</svg>
