<svg xmlns="http://www.w3.org/2000/svg" width="55" height="67" viewBox="0 0 55 67">
    <defs>
        <linearGradient id="a" x1="0%" y1="100%" y2="0%">
            <stop offset="0%" stop-color="#6441A5"/>
            <stop offset="100%" stop-color="#452260"/>
        </linearGradient>
    </defs>
    <path fill="url(#a)" fill-rule="evenodd" d="M19.519 55.808v.001-.001zm-10.627 5.96l3.709 2.3 5.726-9.493a1.715 1.715 0 0 1 2.545-.449l.001.001 8.774 7.081 4.615-38.974L2.645 46.332 13.34 50c.49.167.87.54 1.05 1.022.18.481.137 1.013-.121 1.46l-5.377 9.286zm3.852 4.63c-.315 0-.624-.089-.9-.26L7.39 63.374a1.705 1.705 0 0 1-.58-2.315l5.32-9.192-10.97-3.761a1.712 1.712 0 0 1-1.136-1.349 1.708 1.708 0 0 1 .652-1.637l33.112-25.238a1.714 1.714 0 1 1 2.743 1.567L31.695 62.26a1.715 1.715 0 0 1-2.78 1.132l-9.003-7.266-5.696 9.442a1.707 1.707 0 0 1-1.473.83zm28.473-28.166a1.079 1.079 0 0 1-.338-2.104A17.351 17.351 0 0 0 52.802 19.62c0-9.585-7.796-17.382-17.38-17.382-9.585 0-17.383 7.797-17.383 17.382 0 1.658.233 3.297.693 4.874a1.08 1.08 0 0 1-2.072.605 19.613 19.613 0 0 1-.78-5.48C15.88 8.846 24.647.08 35.422.08s19.54 8.766 19.54 19.54c0 8.451-5.387 15.91-13.407 18.558a1.08 1.08 0 0 1-.337.055z"/>
</svg>
