<svg xmlns="http://www.w3.org/2000/svg" xmlns:xlink="http://www.w3.org/1999/xlink" width="101" height="83" viewBox="0 0 101 83">
    <defs>
        <path id="a" d="M0 82.083h100.053V0H0z"/>
    </defs>
    <g fill="none" fill-rule="evenodd">
        <path stroke="#FFF" stroke-width="2" d="M97.041 81.083H3.012A2.012 2.012 0 0 1 1 79.071V3.011c0-1.11.901-2.01 2.012-2.01h94.029c1.111 0 2.012.9 2.012 2.01v76.06a2.012 2.012 0 0 1-2.012 2.012z"/>
        <mask id="b" fill="#fff">
            <use xlink:href="#a"/>
        </mask>
        <path fill="#FFF" d="M.446 7h98.167V1.665H.446z" mask="url(#b)"/>
        <path stroke="#FFF" stroke-width="2" d="M60.28 38.75c0 7.778-6.306 14.083-14.084 14.083S32.112 46.528 32.112 38.75c0-7.778 6.306-14.083 14.084-14.083S60.28 30.972 60.28 38.75zM56.113 49l10.5 10.5" mask="url(#b)"/>
    </g>
</svg>
