<svg xmlns="http://www.w3.org/2000/svg" width="88" height="84" viewBox="0 0 88 84">
    <g fill="none" fill-rule="evenodd">
        <path stroke="#FFF" stroke-width="2" d="M53.61 38.628a8.623 8.623 0 1 1-17.246 0 8.623 8.623 0 0 1 17.247 0zM25.861 17.394c0 5.96-4.817 10.79-10.76 10.79s-10.76-4.83-10.76-10.79c0-5.959 4.817-10.79 10.76-10.79s10.76 4.831 10.76 10.79zM82.126 11.79c0 5.959-4.817 10.79-10.76 10.79s-10.76-4.831-10.76-10.79C60.606 5.83 65.423 1 71.366 1s10.76 4.83 10.76 10.79zM86.222 50.377c0 5.959-4.817 10.79-10.76 10.79s-10.76-4.831-10.76-10.79c0-5.959 4.817-10.79 10.76-10.79s10.76 4.831 10.76 10.79zM58.09 67.73c0 5.96-4.817 10.79-10.76 10.79s-10.76-4.83-10.76-10.79c0-5.959 4.817-10.79 10.76-10.79s10.76 4.832 10.76 10.79zM22.52 71.61c0 5.96-4.817 10.79-10.76 10.79S1 77.57 1 71.61c0-5.958 4.817-10.79 10.76-10.79s10.76 4.832 10.76 10.79zM19.766 63.203L38.09 44.664M23.646 24.185l13.725 9.629M45.706 47.754v8.91M53.18 42.15l12.502 3.448M51.742 32.09l11.785-12.073"/>
        <path fill="#FFF" d="M50.93 63h-6.86c-.591 0-1.07.478-1.07 1.067v6.866c0 .59.479 1.067 1.07 1.067h6.86c.591 0 1.07-.478 1.07-1.067v-6.866c0-.59-.479-1.067-1.07-1.067zm-1.461 1.406c0-.155.126-.281.28-.281h.845c.155 0 .281.126.281.281v.844a.281.281 0 0 1-.281.281h-.844a.281.281 0 0 1-.281-.281v-.844zm-1.959 1.378c.956 0 1.731.773 1.731 1.726 0 .954-.775 1.727-1.73 1.727-.956 0-1.731-.773-1.731-1.727 0-.953.775-1.726 1.73-1.726zm3.646 5.091a.281.281 0 0 1-.281.281h-6.75a.281.281 0 0 1-.281-.281v-4.219h1.125c-.147.211-.196.605-.196.854a2.738 2.738 0 0 0 5.476 0c0-.25-.036-.637-.218-.854h1.125v4.219zM15.752 68.139a3.636 3.636 0 0 1-1.174.459A1.82 1.82 0 0 0 13.231 68c-1.02 0-1.846.848-1.846 1.893 0 .149.016.293.048.431a5.198 5.198 0 0 1-3.807-1.978c-.159.28-.25.606-.25.953 0 .656.326 1.236.822 1.575a1.813 1.813 0 0 1-.837-.236v.023c0 .918.637 1.684 1.482 1.857a1.76 1.76 0 0 1-.834.033c.235.752.917 1.3 1.725 1.314A3.646 3.646 0 0 1 7 74.65a5.14 5.14 0 0 0 2.83.85c3.397 0 5.254-2.885 5.254-5.387 0-.082-.001-.164-.005-.245.361-.267.674-.6.921-.98-.33.15-.687.252-1.06.298a1.89 1.89 0 0 0 .812-1.047M12.492 16.609h4.314c.3 2.156-.606 5.391-4.314 5.391A4.496 4.496 0 0 1 8 17.5c0-2.485 2.011-4.5 4.492-4.5a4.47 4.47 0 0 1 3.023 1.171c-.94.89-.91.942-1.279 1.313-.461-.383-.965-.657-1.744-.657-1.474 0-2.624 1.197-2.624 2.673s1.15 2.673 2.624 2.673c1.456 0 2.048-.629 2.429-1.784l-2.429.002V16.61zm8.094.089h1.557v1.114h-1.557v1.604h-1.111v-1.604h-1.602v-1.114h1.602v-1.56h1.111v1.56zM67.25 8.886h1.93V15h-1.93V8.886zm7.201-.059c1.372 0 2.45.88 2.45 2.774V15h-2.189v-3.164c0-.828-.342-1.393-1.095-1.393-.575 0-.896.381-1.045.749-.055.132-.047.316-.047.5V15h-2.167s.027-5.604 0-6.114h2.167v.96c.128-.42.82-1.019 1.926-1.019zM68.18 6c.712 0 1.15.456 1.163 1.06 0 .592-.451 1.061-1.177 1.061h-.014c-.698 0-1.151-.467-1.151-1.06C67 6.458 67.466 6 68.179 6zM80 54.503a.497.497 0 0 1-.497.497H77.21v-3.485h1.17l.175-1.359H77.21v-.867c0-.393.109-.661.673-.661h.72v-1.215a9.66 9.66 0 0 0-1.049-.054c-1.037 0-1.747.633-1.747 1.796v1.001h-1.173v1.359h1.173V55h-4.31a.497.497 0 0 1-.497-.497v-8.006c0-.275.222-.497.497-.497h8.006c.274 0 .497.222.497.497v8.006"/>
    </g>
</svg>
