<svg xmlns="http://www.w3.org/2000/svg" xmlns:xlink="http://www.w3.org/1999/xlink" width="67" height="67" viewBox="0 0 67 67">
    <defs>
        <path id="a" d="M66.208 66.207V0H0v66.207h66.208z"/>
        <linearGradient id="b" x1="0%" y1="100%" y2="0%">
            <stop offset="0%" stop-color="#6441A5"/>
            <stop offset="100%" stop-color="#452260"/>
        </linearGradient>
    </defs>
    <g fill="none" fill-rule="evenodd">
        <mask id="c" fill="#fff">
            <use xlink:href="#a"/>
        </mask>
        <path fill="url(#b)" d="M38.005 26.455a8.222 8.222 0 0 0-4.9-1.624c-4.563 0-8.274 3.711-8.274 8.273 0 4.561 3.711 8.272 8.273 8.272 4.561 0 8.272-3.71 8.272-8.272a8.236 8.236 0 0 0-1.91-5.28l6.677-6.679c2.896 3.156 4.681 7.348 4.681 11.96 0 9.77-7.949 17.72-17.72 17.72-9.77 0-17.72-7.95-17.72-17.72 0-9.772 7.95-17.722 17.72-17.722 4.441 0 8.496 1.655 11.61 4.364l-6.709 6.708zm1.371 6.65a6.279 6.279 0 0 1-6.272 6.271 6.28 6.28 0 0 1-6.273-6.272 6.28 6.28 0 0 1 6.273-6.273c1.283 0 2.477.39 3.472 1.053l-4.679 4.68a.999.999 0 1 0 1.414 1.413l4.73-4.729a6.232 6.232 0 0 1 1.335 3.856zm17.804 0c0 13.274-10.8 24.075-24.076 24.075S9.027 46.38 9.027 33.104 19.828 9.027 33.104 9.027c6.194 0 11.848 2.353 16.12 6.21l-3.097 3.097c-3.478-3.07-8.03-4.95-13.023-4.95-10.874 0-19.72 8.846-19.72 19.72 0 10.874 8.846 19.72 19.72 19.72 10.874 0 19.72-8.846 19.72-19.72 0-5.163-2.009-9.853-5.267-13.372l3.091-3.092c4.046 4.31 6.532 10.1 6.532 16.464zm-.152-22.845l1.366-1.366A.999.999 0 1 0 56.98 7.48l-1.374 1.374C49.696 3.365 41.787 0 33.104 0a32.994 32.994 0 0 0-22.539 8.858 1 1 0 1 0 1.362 1.464A30.997 30.997 0 0 1 33.104 2c8.132 0 15.541 3.14 21.09 8.267l-3.554 3.554c-4.635-4.219-10.79-6.794-17.536-6.794-14.379 0-26.077 11.698-26.077 26.077 0 14.38 11.698 26.076 26.077 26.076 14.38 0 26.076-11.697 26.076-26.076 0-6.915-2.71-13.205-7.118-17.877l3.553-3.553c5.318 5.583 8.593 13.13 8.593 21.43 0 17.15-13.953 31.103-31.104 31.103C15.954 64.207 2 50.254 2 33.104c0-4.614.986-9.055 2.931-13.199a1.001 1.001 0 0 0-1.81-.85A32.815 32.815 0 0 0 0 33.105c0 18.252 14.85 33.102 33.103 33.102s33.104-14.85 33.104-33.103c0-8.853-3.5-16.898-9.18-22.844z" mask="url(#c)"/>
    </g>
</svg>
