<svg xmlns="http://www.w3.org/2000/svg" width="99" height="81" viewBox="0 0 99 81">
    <g fill="none" fill-rule="evenodd" stroke="#FFF" stroke-width="2">
        <path d="M96 79.522H3a2 2 0 0 1-2-2.002V3a2 2 0 0 1 2-2h93a2 2 0 0 1 2 2v74.52a2.001 2.001 0 0 1-2 2.002zM1.833 62.867H97.5M14 .534v62M84.667.534v62M1 21.7h13.833M1 42.367h13.833M84.167 21.7H98M84.167 42.367H98M27.333 70.7h50.333M37.167 67.2v7.834M19.5 67.368V74.2M23 67.368V74.2"/>
        <path d="M43.833 21.2v20l13.833-9.832z"/>
    </g>
</svg>
