<?xml version="1.0" encoding="UTF-8"?>
<svg width="42px" height="41px" viewBox="0 0 42 41" version="1.1" xmlns="http://www.w3.org/2000/svg" xmlns:xlink="http://www.w3.org/1999/xlink">
    <!-- Generator: sketchtool 47.1 (45422) - http://www.bohemiancoding.com/sketch -->
    <title>A7D101F5-A1E2-459D-BA10-83262360C88A</title>
    <desc>Created with sketchtool.</desc>
    <defs></defs>
    <g id="Page-1" stroke="none" stroke-width="1" fill="none" fill-rule="evenodd">
        <g id="Serwinmedia" transform="translate(-699.000000, -1485.000000)" fill-rule="nonzero" fill="#000000">
            <g id="cards_services" transform="translate(0.000000, 1420.000000)">
                <g id="card_transparency" transform="translate(535.000000, 0.000000)">
                    <g id="icon_trancparency" transform="translate(164.000000, 65.000000)">
                        <path d="M25,34 C15.6111593,34 8,26.3888407 8,17 C8,7.61115925 15.6111593,0 25,0 C34.3888407,0 42,7.61115925 42,17 C42,26.3888407 34.3888407,34 25,34 Z M25,32 C33.2842712,32 40,25.2842712 40,17 C40,8.71572875 33.2842712,2 25,2 C16.7157288,2 10,8.71572875 10,17 C10,25.2842712 16.7157288,32 25,32 Z" id="Combined-Shape"></path>
                        <polygon id="Line-5" points="12.5 27.0857864 0.0404254204 39.545361 1.45463898 40.9595746 13.9142136 28.5"></polygon>
                    </g>
                </g>
            </g>
        </g>
    </g>
</svg>