<svg xmlns="http://www.w3.org/2000/svg" width="30" height="30" viewBox="0 0 30 30">
    <g fill="none" fill-rule="evenodd">
        <path fill="#2A5B83" d="M30 15c0 8.284-6.715 15-15 15-8.284 0-15-6.716-15-15C0 6.716 6.716 0 15 0c8.285 0 15 6.716 15 15"/>
        <path fill="#FFF" d="M21.06 7.507H10.02a1.72 1.72 0 0 0-1.722 1.718v11.05c0 .948.77 1.717 1.722 1.717H21.06a1.72 1.72 0 0 0 1.721-1.718V9.224a1.72 1.72 0 0 0-1.721-1.717zM18.71 9.77c0-.25.202-.453.452-.453h1.358c.25 0 .453.203.453.453v1.358c0 .25-.203.452-.453.452H19.16a.453.453 0 0 1-.452-.452V9.77zm-3.153 2.217a2.783 2.783 0 0 1 2.786 2.78 2.782 2.782 0 0 1-2.786 2.778 2.782 2.782 0 0 1-2.785-2.779 2.783 2.783 0 0 1 2.785-2.779zm5.868 8.194c0 .25-.202.453-.452.453H10.108a.453.453 0 0 1-.453-.453v-6.79h1.81c-.235.34-.315.973-.315 1.375a4.407 4.407 0 0 0 8.813 0c0-.402-.057-1.026-.35-1.375h1.811v6.79z"/>
    </g>
</svg>
