<svg xmlns="http://www.w3.org/2000/svg" width="30" height="30" viewBox="0 0 30 30">
    <path fill="#24A9E6" fill-rule="evenodd" d="M30 15c0 8.284-6.716 15-15 15-8.284 0-15-6.716-15-15C0 6.716 6.716 0 15 0c8.284 0 15 6.716 15 15zm-8.104-6.08a5.969 5.969 0 0 1-1.93.754 2.994 2.994 0 0 0-2.215-.982c-1.675 0-3.035 1.394-3.035 3.113 0 .244.026.48.079.709-2.523-.13-4.76-1.368-6.258-3.254-.262.462-.411.997-.411 1.567 0 1.08.536 2.032 1.35 2.59a2.976 2.976 0 0 1-1.375-.388v.039c0 1.508 1.046 2.767 2.436 3.052a2.958 2.958 0 0 1-1.371.055c.386 1.236 1.507 2.136 2.835 2.16a5.993 5.993 0 0 1-4.494 1.29 8.45 8.45 0 0 0 4.653 1.398c5.585 0 8.638-4.743 8.638-8.857 0-.135-.002-.27-.008-.403a6.234 6.234 0 0 0 1.514-1.611 5.946 5.946 0 0 1-1.743.49 3.108 3.108 0 0 0 1.335-1.722z"/>
</svg>
