<?xml version="1.0" standalone="no"?>
<!DOCTYPE svg PUBLIC "-//W3C//DTD SVG 20010904//EN"
 "http://www.w3.org/TR/2001/REC-SVG-20010904/DTD/svg10.dtd">
<svg version="1.0" xmlns="http://www.w3.org/2000/svg"
 width="472.000000pt" height="472.000000pt" viewBox="0 0 472.000000 472.000000"
 preserveAspectRatio="xMidYMid meet">
<metadata>
Created by potrace 1.11, written by Peter Selinger 2001-2013
</metadata>
<g transform="translate(0.000000,472.000000) scale(0.100000,-0.100000)"
fill="#000000" stroke="none">
<path d="M1258 4182 l-28 -3 0 -798 c0 -698 -2 -800 -15 -811 -12 -10 -15 -9
-15 4 0 18 4 18 -132 -15 -96 -24 -102 -24 -95 1 3 10 -1 24 -9 31 -12 9 -11
14 1 32 13 19 13 23 -7 44 -20 21 -21 27 -10 74 16 68 14 82 -4 39 -34 -78
-72 -91 -106 -34 l-21 36 -12 -36 c-7 -20 -19 -44 -26 -53 -12 -14 -10 -14 14
1 15 10 27 26 27 35 0 10 5 6 14 -11 19 -36 10 -65 -21 -73 -14 -3 -23 -8 -21
-10 3 -3 35 2 72 12 51 12 70 13 78 5 9 -9 9 -12 0 -12 -7 0 -12 -8 -12 -17 0
-13 -2 -15 -8 -5 -11 16 -64 5 -171 -33 -68 -25 -174 -77 -196 -96 -5 -5 -18
-9 -29 -9 -20 0 -20 1 2 16 20 14 21 17 7 31 -10 9 -13 23 -9 35 12 37 12 73
0 80 -21 14 -24 8 -13 -27 9 -31 8 -37 -9 -50 -24 -18 -46 -19 -89 -1 -42 18
-47 29 -6 15 37 -13 84 -8 87 9 1 7 0 8 -3 2 -7 -15 -37 -12 -99 11 -45 17
-59 27 -70 55 -8 19 -20 34 -27 33 -9 0 -9 -2 1 -6 6 -2 12 -9 12 -14 0 -6 -8
-5 -20 1 -22 12 -27 1 -8 -18 9 -9 6 -14 -13 -21 -13 -5 -27 -7 -31 -4 -5 2
-8 0 -8 -6 0 -18 33 -29 58 -20 19 7 34 2 78 -27 60 -40 119 -98 119 -117 0
-7 10 -13 23 -15 16 -3 22 -10 22 -28 0 -13 5 -24 10 -24 28 0 0 -21 -93 -69
-123 -65 -200 -119 -290 -204 -76 -73 -84 -99 -41 -150 24 -29 24 -31 7 -40
-38 -21 -44 -52 -11 -63 13 -4 39 -17 58 -30 19 -13 64 -30 100 -38 155 -34
444 -109 534 -138 41 -14 62 -16 69 -9 6 6 7 11 3 11 -5 0 -3 7 4 15 15 18 14
18 -27 6 -48 -14 -50 4 -3 23 22 9 40 21 40 27 0 11 -7 10 -70 -6 -14 -3 -4 6
23 20 26 14 47 30 47 36 0 6 -6 9 -13 6 -106 -47 -143 -58 -206 -60 -53 -1
-73 2 -88 15 -11 10 -65 25 -138 38 -66 12 -122 23 -125 25 -3 2 -23 6 -45 9
-62 10 -78 16 -107 44 -32 29 -37 47 -10 33 10 -5 65 -24 123 -41 156 -46 148
-45 120 -20 -13 11 -54 30 -92 41 -62 19 -126 55 -116 65 2 2 25 -2 50 -10 26
-8 47 -11 47 -6 0 4 -19 13 -42 19 -44 13 -138 74 -138 91 0 20 66 70 93 70
16 0 26 4 22 10 -4 6 6 10 23 10 17 0 45 12 67 30 39 31 81 47 92 36 4 -3 1
-12 -5 -18 -7 -7 -12 -20 -12 -30 0 -10 -5 -15 -13 -12 -8 3 -19 -2 -26 -10
-7 -8 -19 -12 -27 -9 -8 3 -14 0 -14 -5 0 -15 36 -25 60 -17 12 4 27 1 35 -5
11 -9 23 -9 49 0 47 15 56 31 14 25 l-33 -5 32 12 c42 14 51 42 24 79 -12 15
-21 32 -21 38 0 10 -40 8 -58 -3 -7 -4 -12 -1 -12 8 0 9 -5 16 -11 16 -5 0 -8
4 -4 10 3 6 15 6 30 0 16 -6 27 -6 31 1 3 6 12 8 20 5 7 -3 16 -1 19 5 4 5 -1
12 -9 15 -9 3 -16 10 -16 16 0 5 5 6 10 3 6 -4 35 -1 66 5 41 9 59 9 67 1 15
-15 27 -14 27 3 0 14 48 32 57 22 3 -3 12 1 20 9 8 8 23 15 33 15 10 0 22 5
25 10 12 19 40 10 77 -25 49 -47 109 -121 106 -131 -1 -5 6 -24 15 -41 l18
-33 -33 -1 -33 -1 30 -7 c50 -12 67 -26 81 -67 18 -51 17 -64 -3 -64 -9 0 -14
-3 -10 -6 8 -8 -27 -76 -47 -93 -17 -15 -22 -36 -6 -26 6 3 10 2 10 -4 0 -5
-16 -19 -36 -31 -19 -12 -33 -25 -30 -27 9 -9 75 38 110 78 42 50 60 113 53
183 -7 66 -22 97 -79 157 -47 51 -86 138 -67 150 8 5 8 12 -1 29 -6 12 -9 25
-5 28 9 10 35 -28 35 -51 0 -34 31 -87 91 -152 52 -57 58 -69 65 -122 15 -114
-2 -181 -58 -225 -67 -55 -48 -70 55 -43 32 8 61 14 65 14 29 -5 62 3 62 15 0
16 -46 25 -107 21 -24 -2 -43 1 -43 6 0 5 7 9 15 9 8 0 15 5 15 10 0 6 16 26
36 44 37 35 37 35 30 97 -3 37 -16 80 -30 105 -15 26 -20 46 -15 50 6 3 13 -3
16 -15 3 -12 9 -21 13 -21 5 0 6 9 3 20 -7 25 5 26 23 3 13 -17 13 -17 14 0 0
9 7 17 15 17 13 0 15 -25 15 -165 0 -91 3 -165 8 -166 4 0 16 -2 27 -5 11 -2
38 -6 60 -9 22 -3 63 -10 90 -15 28 -6 82 -12 120 -14 39 -3 88 -11 110 -19
22 -8 59 -20 82 -27 52 -16 82 -45 65 -62 -9 -9 -24 -8 -62 6 -67 24 -74 15
-10 -13 27 -12 50 -26 50 -31 0 -11 -36 -45 -48 -46 -4 0 -26 -4 -49 -8 -24
-4 -46 -8 -50 -8 -5 1 -16 -6 -25 -15 -9 -8 -22 -12 -27 -8 -6 3 -21 8 -33 10
-70 13 -129 31 -211 65 -82 33 -92 40 -95 65 -4 27 -2 28 35 22 21 -3 52 -8
69 -12 23 -5 33 -3 37 8 4 11 0 13 -14 10 -13 -4 -19 0 -19 11 0 17 8 18 80 2
86 -20 94 -20 86 -1 -4 11 -1 22 6 27 9 5 5 7 -9 5 -12 -2 -25 -5 -28 -8 -8
-8 -139 14 -147 24 -3 6 -27 12 -53 13 -42 3 -45 1 -40 -16 9 -27 -25 -82 -45
-74 -30 11 -100 21 -100 14 0 -5 19 -11 43 -15 64 -11 95 -31 99 -62 3 -26 7
-28 88 -43 76 -14 138 -39 126 -51 -3 -2 19 -5 48 -5 29 -1 61 -6 72 -12 16
-10 11 -11 -30 -12 -65 0 -55 -8 17 -13 44 -4 57 -2 57 9 0 14 11 16 83 17 49
1 127 -14 127 -24 0 -5 -21 -9 -47 -10 -27 0 -66 -3 -88 -5 -22 -2 -76 -4
-119 -5 -63 -1 -81 2 -88 15 -5 9 -19 16 -32 16 -13 0 -29 6 -35 13 -12 15
-103 12 -109 -4 -2 -5 -14 -9 -27 -9 -28 0 -45 26 -45 69 0 17 -2 31 -4 31 -1
0 -17 -5 -34 -11 -23 -8 -36 -7 -53 2 -27 14 -226 22 -234 9 -3 -5 15 -15 40
-21 25 -6 48 -16 52 -22 6 -10 -18 -7 -77 10 -22 6 -23 5 -10 -9 9 -8 40 -18
70 -21 99 -12 205 -21 228 -20 22 1 22 0 22 -136 l0 -137 1135 0 1135 0 -1
230 c-1 127 -4 221 -6 208 -2 -12 -9 -19 -15 -16 -6 4 -13 2 -17 -4 -3 -5 -26
-11 -51 -13 -25 -1 -53 -6 -63 -11 -11 -6 -23 -6 -30 0 -7 6 -26 12 -44 15
-26 4 -31 2 -26 -11 5 -11 2 -14 -10 -9 -51 20 -179 36 -292 37 -71 1 -146 2
-165 2 -66 3 -162 -20 -102 -23 12 -1 31 -2 41 -3 21 -1 42 -16 23 -16 -7 0
-12 -7 -12 -16 0 -9 -6 -14 -12 -12 -7 3 -37 13 -65 23 -50 18 -66 36 -43 50
6 4 43 9 83 12 40 3 77 9 82 14 14 11 113 17 145 9 14 -4 41 -2 60 3 39 11 72
15 145 17 71 2 77 1 69 -11 -3 -6 -18 -9 -33 -6 -14 3 -35 1 -46 -3 -17 -8
-18 -9 -2 -10 42 -4 63 -3 74 3 6 4 34 9 62 12 49 4 119 20 214 50 26 8 45 10
42 5 -4 -6 1 -10 9 -10 9 0 16 5 16 10 0 6 10 10 23 11 12 0 16 3 10 6 -38 15
20 44 71 36 24 -4 36 -2 36 6 0 20 3 26 19 39 22 17 -113 5 -153 -14 -16 -8
-31 -14 -33 -14 -1 0 -3 50 -3 111 0 65 4 108 9 104 5 -3 12 -1 15 4 9 13 -20
21 -32 9 -8 -8 -15 -8 -25 1 -8 6 -22 9 -31 5 -9 -3 -23 -1 -30 6 -10 8 -20 8
-33 2 -10 -6 -25 -7 -33 -2 -8 4 -42 10 -75 13 -88 8 -149 19 -160 27 -5 4
-19 4 -30 0 -12 -4 -31 -2 -48 7 -15 7 -31 11 -36 9 -5 -3 -15 1 -22 10 -11
13 -11 15 2 12 8 -1 24 7 37 20 29 29 42 28 42 -2 0 -22 6 -25 73 -37 104 -19
102 -20 104 28 1 23 7 51 13 63 6 11 8 25 5 30 -3 6 -1 10 6 10 7 0 9 -11 5
-32 -11 -53 -12 -108 -2 -110 8 -3 16 36 19 95 1 15 6 27 13 27 11 0 11 -15 0
-92 -6 -47 11 -60 25 -19 6 17 15 31 20 31 5 0 4 -11 -1 -25 -11 -28 -9 -29
49 -39 19 -3 39 -1 46 4 9 8 14 6 19 -5 3 -8 17 -15 31 -15 18 0 25 5 25 20 0
11 -6 19 -12 18 -15 -3 -12 35 3 40 5 2 9 19 9 38 0 19 5 34 10 34 22 0 80
-30 80 -41 0 -9 3 -9 14 0 11 9 16 9 21 0 4 -6 2 -15 -5 -19 -9 -6 -5 -13 14
-26 23 -15 25 -19 12 -26 -9 -5 -16 -20 -16 -34 0 -16 -7 -27 -22 -33 -18 -6
-13 -9 27 -13 27 -4 51 -11 53 -17 2 -6 8 -9 13 -6 5 4 4 14 -3 24 -8 14 -7
24 8 46 l19 29 9 -27 c10 -28 33 -32 28 -4 -2 11 3 14 18 10 13 -4 19 -11 16
-20 -3 -8 -6 -19 -6 -24 0 -5 -12 -9 -27 -10 l-28 -1 25 -7 c22 -7 27 -3 40
26 18 39 30 43 30 8 0 -16 6 -25 15 -25 8 0 15 7 15 15 0 8 6 15 13 16 6 0 -6
9 -28 20 l-40 19 35 -6 c19 -4 52 -12 73 -19 21 -7 46 -11 56 -8 10 3 22 0 26
-7 5 -8 10 -8 21 1 11 9 14 8 14 -3 0 -8 -5 -19 -12 -26 -9 -9 -9 -12 -1 -12
7 0 15 5 18 10 4 6 11 8 16 4 5 -3 6 -10 3 -16 -4 -7 2 -8 17 -3 21 7 22 6 10
-8 -16 -21 -44 -15 -122 25 -65 32 -70 33 -63 13 4 -8 13 -15 21 -15 12 0 70
-26 83 -37 2 -2 -2 -8 -10 -14 -13 -8 -13 -10 0 -18 18 -12 20 -10 -69 -57
-51 -26 -87 -38 -112 -38 -24 1 -40 -4 -43 -13 -3 -8 -11 -13 -18 -12 -26 3
-51 -1 -45 -8 4 -3 2 -12 -4 -19 -9 -11 -5 -13 18 -13 46 2 92 -15 213 -77
189 -97 208 -104 206 -85 -1 11 6 15 23 13 16 -1 22 2 18 11 -8 22 102 9 127
-16 l21 -19 -45 4 c-25 3 -54 1 -65 -3 -19 -7 -19 -8 3 -8 12 -1 25 -8 28 -16
4 -8 18 -15 33 -15 14 0 41 -4 59 -9 17 -5 32 -6 32 -1 0 5 -13 11 -30 15 -45
10 -36 21 27 34 70 14 187 15 178 1 -3 -6 -34 -8 -73 -5 -61 4 -65 3 -48 -10
17 -13 68 -21 99 -16 4 0 7 -4 7 -10 0 -6 -9 -9 -20 -6 -11 3 -20 1 -20 -4 0
-6 29 -9 67 -7 71 3 93 20 51 39 -17 7 -28 25 -37 57 -7 26 -21 63 -31 82 -9
19 -20 46 -23 60 -4 15 -18 30 -36 38 -19 9 -28 18 -24 28 4 12 -35 77 -58 94
-14 11 -1 54 24 76 15 13 27 27 27 31 1 17 67 95 90 106 32 16 86 111 94 163
l6 42 -44 6 c-40 6 -72 5 -201 -10 -145 -17 -327 -80 -449 -157 -89 -55 -154
-85 -176 -81 -47 8 -257 89 -269 103 -11 14 -12 13 -6 -9 l7 -25 -26 24 c-22
21 -24 26 -11 34 8 4 20 5 25 2 7 -4 10 303 10 899 0 498 -3 906 -7 907 -27 2
-2213 3 -2235 1z m1252 -1408 c0 -10 3 -15 6 -11 3 3 17 2 30 -3 14 -6 26 -6
29 0 4 6 -1 10 -9 10 -9 0 -16 5 -16 10 0 6 10 8 23 5 29 -8 59 -13 73 -14 7
-1 14 -9 17 -20 5 -20 50 -34 65 -19 4 4 32 1 61 -8 29 -8 55 -13 58 -10 3 3
-22 13 -55 22 -80 22 -71 36 10 17 55 -13 77 -25 78 -43 0 -14 -43 -29 -100
-35 -35 -4 -86 -14 -114 -22 -28 -9 -69 -17 -91 -19 -22 -1 -44 -3 -48 -3 -5
-1 -5 -6 -2 -11 4 -6 12 -10 18 -9 28 3 36 -3 42 -31 4 -16 11 -30 16 -30 13
0 11 24 -3 38 -17 17 -6 22 28 13 24 -6 28 -12 26 -34 -2 -15 1 -27 6 -27 14
0 33 26 25 33 -12 13 18 7 49 -9 24 -12 28 -18 17 -25 -12 -8 -6 -13 13 -10
11 1 20 -37 13 -58 -4 -13 1 -24 13 -33 31 -22 60 -90 30 -72 -8 5 -10 -3 -5
-28 4 -25 2 -35 -8 -35 -8 0 -14 3 -13 6 2 20 -4 30 -16 25 -9 -3 -13 2 -12
18 1 13 7 22 14 20 7 -1 12 9 12 22 0 18 -4 23 -18 19 -14 -3 -21 6 -32 47 -9
31 -17 47 -23 41 -5 -5 -6 -22 -2 -38 5 -15 7 -34 6 -40 -1 -7 3 -13 9 -13 5
0 10 -8 10 -19 0 -15 -7 -18 -35 -15 -19 1 -35 -2 -35 -7 0 -5 -4 -9 -10 -9
-5 0 -10 7 -10 16 0 8 -5 12 -11 8 -8 -4 -9 1 -4 17 4 13 12 26 16 27 12 5 11
32 -1 32 -5 0 -10 -6 -10 -12 0 -7 -7 -25 -14 -40 -10 -19 -11 -30 -4 -34 7
-5 6 -11 -4 -18 -8 -6 -19 -22 -23 -36 -8 -25 -8 -25 14 -6 21 19 21 19 21 -2
0 -26 -14 -35 -40 -27 -13 4 -20 15 -20 31 0 29 -16 32 -25 3 -6 -19 -8 -19
-24 -5 -10 9 -21 13 -25 9 -4 -5 -5 9 -1 30 6 31 5 36 -9 31 -8 -3 -15 -9 -14
-12 0 -4 0 -20 -1 -37 -2 -28 -3 -29 -15 -12 -14 18 -15 18 -24 0 -9 -16 -11
-15 -17 10 -11 42 -31 33 -26 -11 1 -7 -2 -11 -6 -10 -4 1 -18 -3 -29 -10 -25
-13 -34 -7 -34 25 0 30 -28 31 -32 1 -2 -18 -11 -24 -43 -28 l-40 -6 44 -8
c73 -14 114 -15 132 -5 19 10 49 2 49 -13 0 -16 -28 -39 -35 -28 -3 5 -16 9
-28 9 -39 -1 -120 10 -174 25 -29 8 -55 10 -58 5 -3 -4 -19 -6 -35 -2 -17 3
-31 2 -31 -3 -1 -5 -3 -22 -4 -39 -2 -16 -3 -34 -4 -40 -1 -5 -8 -2 -17 7 -13
13 -14 19 -3 36 9 14 10 25 3 34 -6 7 -8 27 -4 43 5 28 6 28 12 8 4 -16 14
-23 31 -23 19 0 27 6 30 23 l4 22 8 -22 c11 -33 22 -28 27 12 3 30 1 34 -17
30 -11 -2 -23 -4 -27 -4 -4 -1 -10 -10 -13 -21 -3 -11 -10 -20 -15 -20 -13 0
-18 48 -6 61 6 7 -5 3 -24 -8 -27 -15 -35 -26 -35 -46 1 -26 -14 -40 -16 -14
0 6 -2 22 -5 34 -2 12 1 25 6 28 13 8 13 55 0 55 -6 0 -9 -6 -8 -12 2 -7 -5
-12 -14 -10 -12 2 -16 -2 -12 -13 3 -8 2 -15 -3 -15 -11 0 -44 55 -37 62 2 3
-3 11 -11 18 -27 22 -39 -3 -15 -32 25 -32 26 -60 3 -56 -10 1 -23 -1 -29 -5
-7 -4 -19 13 -33 46 -18 43 -20 46 -15 17 12 -72 13 -90 4 -90 -5 0 -12 11
-16 25 -3 14 -12 25 -20 25 -10 0 -11 -6 -4 -25 6 -14 14 -37 20 -51 7 -17 14
-23 22 -17 7 4 21 6 32 4 11 -1 16 2 12 8 -4 6 -2 11 3 11 6 0 11 -4 11 -10 0
-5 7 -10 16 -10 8 0 12 5 9 10 -3 6 -2 10 3 10 6 0 13 -7 16 -15 3 -9 11 -15
18 -14 7 1 25 1 40 0 24 -1 25 -3 15 -26 -12 -26 -30 -36 -21 -11 3 7 -3 17
-13 20 -10 4 -19 2 -21 -4 -3 -8 -8 -7 -18 1 -11 9 -18 9 -26 1 -8 -8 -14 -7
-22 4 -12 16 -50 9 -40 -7 3 -5 1 -9 -5 -9 -5 0 -13 5 -16 10 -5 8 -11 7 -21
-1 -14 -11 -20 -1 -15 25 6 28 -10 52 -36 54 -15 1 -37 12 -50 24 -25 23 -29
19 -13 -13 7 -13 7 -19 0 -19 -5 0 -10 -6 -10 -13 0 -19 22 -38 34 -28 6 4 21
3 32 -4 19 -9 20 -13 8 -29 -13 -18 -14 -18 -20 -2 -6 15 -15 17 -63 11 -31
-3 -71 -8 -88 -12 -41 -7 -45 14 -5 22 15 4 35 10 44 15 11 6 19 6 23 0 10
-17 25 -11 25 9 0 10 -7 24 -15 31 -8 7 -15 21 -15 31 0 11 -5 19 -10 19 -6 0
-8 -11 -4 -25 5 -19 2 -25 -10 -25 -9 0 -19 7 -23 16 -8 21 -23 -1 -23 -35 l0
-23 -30 29 c-34 33 -65 99 -50 108 18 11 10 26 -10 20 -13 -4 -20 -2 -20 7 0
7 -16 26 -35 41 -19 15 -35 23 -35 18 0 -5 5 -13 10 -16 6 -3 10 -21 10 -38 1
-18 8 -50 16 -72 21 -57 24 -74 14 -80 -11 -7 -2 -32 13 -38 9 -3 12 11 11 49
-1 30 2 54 7 54 9 0 20 -55 16 -85 -3 -26 -31 -57 -48 -55 -35 5 -59 -1 -59
-15 0 -8 -4 -15 -10 -15 -5 0 -10 5 -10 11 0 6 -7 9 -15 6 -18 -8 -30 10 -17
26 13 16 -3 57 -23 57 -8 0 -15 7 -15 15 0 8 -4 15 -9 15 -20 0 -22 -22 -6
-46 20 -30 11 -46 -10 -18 -8 11 -15 14 -15 7 0 -7 8 -21 19 -32 22 -22 36
-87 14 -70 -7 7 -13 21 -13 33 0 12 -9 27 -20 34 -17 10 -20 10 -20 -4 0 -28
-26 1 -45 51 -9 25 -21 45 -26 45 -5 0 -3 -13 6 -30 18 -34 18 -40 5 -40 -5 0
-16 23 -24 50 -8 28 -25 64 -37 81 -11 17 -19 33 -16 36 12 11 38 -8 59 -43
17 -29 23 -33 30 -20 7 12 14 13 35 5 28 -10 39 -7 28 10 -3 6 -11 8 -17 5 -8
-5 -9 -1 -5 10 4 10 7 53 7 97 l0 79 30 0 c22 0 28 4 24 15 -5 11 1 15 22 16
36 1 68 5 117 14 23 4 37 2 37 -4 0 -6 9 -11 20 -11 13 0 18 5 14 15 -5 11 1
15 22 15 16 1 53 3 82 6 34 4 52 2 52 -5 0 -6 7 -11 15 -11 9 0 12 6 9 15 -5
11 1 15 22 16 16 0 43 3 59 5 75 11 95 11 95 3 0 -5 -4 -9 -10 -9 -5 0 -10 -7
-10 -15 0 -17 16 -20 25 -5 3 6 15 10 25 10 13 0 17 5 14 15 -4 10 0 15 10 15
9 0 16 -6 15 -12 -1 -7 5 -29 14 -48 9 -19 16 -29 17 -21 0 11 4 9 15 -5 13
-17 14 -16 5 15 -5 19 -14 39 -20 45 -15 15 -12 22 10 22 13 0 20 -7 20 -20 0
-18 1 -18 20 -1 12 11 38 18 70 20 28 1 54 6 58 10 4 4 -9 4 -28 0 -32 -6 -33
-6 -15 7 25 18 224 75 290 84 28 3 51 7 52 8 1 1 21 3 43 4 32 2 40 -1 40 -14z
m-1656 -206 c6 -4 7 -10 3 -14 -3 -4 -13 -1 -22 6 -13 11 -14 10 -9 -3 3 -9
15 -17 27 -19 11 -2 22 -9 25 -17 3 -8 0 -11 -6 -7 -6 4 -19 2 -29 -3 -58 -32
-199 -91 -217 -91 -21 1 -21 1 -1 12 40 23 48 56 13 54 -15 -1 -23 -7 -22 -19
2 -23 -13 -22 -25 2 -9 16 -2 23 59 55 88 47 183 78 189 62 2 -6 9 -14 15 -18z
m26 16 c0 -2 -7 -4 -15 -4 -8 0 -15 4 -15 10 0 5 7 7 15 4 8 -4 15 -8 15 -10z
m60 -4 c0 -5 -5 -10 -11 -10 -5 0 -7 5 -4 10 3 6 8 10 11 10 2 0 4 -4 4 -10z
m195 -30 c3 -5 -1 -10 -9 -10 -9 0 -16 5 -16 10 0 6 4 10 9 10 6 0 13 -4 16
-10z m1680 -53 c-4 -59 -4 -61 -12 -53 -13 13 -10 104 3 99 8 -3 11 -21 9 -46z
m39 18 c-4 -8 -10 -12 -15 -9 -14 8 -10 24 6 24 9 0 12 -6 9 -15z m-1774 -10
c0 -3 -5 -13 -11 -23 -9 -14 -8 -25 5 -50 18 -35 21 -62 6 -62 -16 0 -30 37
-30 83 0 24 3 47 7 50 8 8 23 9 23 2z m1911 -15 c23 -6 39 -18 42 -30 6 -24
-8 -36 -17 -14 -3 8 -22 22 -41 30 -56 23 -47 31 16 14z m-1953 -82 c23 -46
42 -90 41 -98 0 -8 -7 -1 -15 17 -7 17 -18 35 -25 38 -6 4 -4 -7 5 -23 18 -35
19 -42 8 -42 -14 0 -32 48 -32 83 0 18 -9 47 -20 65 -22 36 -24 42 -12 42 4 0
27 -37 50 -82z m1840 42 c-5 -17 -14 -30 -19 -30 -13 0 -11 44 3 58 19 19 28
4 16 -28z m47 31 c3 -5 1 -12 -4 -15 -5 -3 -11 1 -15 9 -6 16 9 21 19 6z
m1657 -3 c28 5 31 -17 3 -30 -14 -6 -24 -16 -22 -22 2 -6 -26 -20 -62 -32 -36
-12 -59 -22 -49 -23 9 -1 44 8 77 18 34 10 63 15 66 11 4 -7 -22 -19 -132 -57
-29 -10 -53 -21 -53 -25 0 -6 11 -4 93 23 27 9 41 9 48 2 17 -17 -26 -40 -112
-62 -41 -10 -72 -21 -69 -24 11 -11 -47 -44 -90 -51 -64 -10 -72 -12 -100 -23
-16 -7 -27 -7 -31 -1 -10 15 -47 -1 -54 -23 -8 -25 -30 -24 -49 3 -19 27 -12
40 18 32 24 -6 80 31 70 47 -5 9 90 59 114 59 6 0 12 6 12 14 0 7 14 19 30 26
17 7 33 17 36 22 3 5 -10 2 -30 -6 -38 -16 -50 -4 -15 14 11 7 18 14 15 18 -4
3 -25 -5 -49 -18 -54 -30 -52 -27 -38 -44 10 -12 8 -17 -9 -26 -25 -13 -42 -4
-20 10 8 6 11 10 5 11 -21 3 -51 -3 -62 -13 -19 -15 -16 2 4 24 9 10 24 18 33
18 10 0 24 7 31 16 12 15 11 16 -11 9 -39 -12 -81 -31 -130 -60 -42 -24 -43
-25 -17 -3 15 13 27 28 27 34 0 6 19 17 43 24 23 8 49 19 58 27 17 14 113 49
156 56 15 3 57 10 93 16 83 14 132 18 145 11 6 -2 17 -3 27 -2z m-3123 -46 c8
-25 7 -32 -4 -32 -20 0 -37 37 -30 61 9 26 22 14 34 -29z m1926 27 c32 -13 40
-16 54 -18 12 -1 41 -30 41 -41 0 -22 -119 -44 -138 -26 -2 3 -13 1 -23 -5
-15 -7 -21 -6 -25 5 -3 8 -12 12 -20 9 -8 -3 -14 0 -14 7 0 6 -5 8 -10 5 -6
-3 -17 1 -26 9 -26 27 -65 32 -81 10 -7 -10 -11 -26 -7 -36 10 -32 -13 -19
-30 17 -10 20 -21 33 -26 30 -10 -6 -25 33 -16 42 3 3 18 1 33 -6 21 -8 40 -8
78 3 58 15 167 13 210 -5z m-2495 1 c0 -5 -5 -10 -11 -10 -5 0 -8 -4 -5 -8 2
-4 -10 -9 -27 -9 -30 -2 -31 -1 -9 9 12 6 22 15 22 20 0 4 7 8 15 8 8 0 15 -4
15 -10z m300 3 c-1 -14 -30 -47 -36 -41 -10 11 7 48 22 48 8 0 14 -3 14 -7z
m1756 -28 c-9 -13 -16 -32 -16 -42 0 -14 -2 -15 -9 -4 -5 7 -13 11 -19 7 -15
-9 -24 24 -11 40 14 17 33 18 23 2 -4 -7 2 -5 12 5 27 25 39 21 20 -8z m-2071
-35 c-10 -11 -14 -20 -10 -20 5 0 4 -5 -3 -12 -8 -8 -15 -8 -27 2 -22 18 -19
27 13 38 41 16 47 14 27 -8z m2195 -11 c0 -6 -7 -18 -16 -26 -13 -14 -17 -14
-25 -2 -10 16 -12 43 -3 52 9 8 44 -11 44 -24z m-76 6 c3 -8 1 -15 -4 -15 -6
0 -10 7 -10 15 0 8 2 15 4 15 2 0 6 -7 10 -15z m221 -15 c7 -33 -1 -118 -14
-139 -6 -10 -10 -9 -15 4 -3 10 -1 23 5 31 15 18 2 55 -17 47 -10 -4 -14 2
-14 20 0 17 5 24 18 23 12 -1 17 6 16 22 -1 32 13 27 21 -8z m-331 -21 c-3 -5
1 -9 8 -9 8 0 15 -11 16 -25 1 -14 -3 -25 -8 -25 -6 0 -10 9 -10 21 0 16 -4
19 -20 14 -15 -5 -20 -2 -20 14 0 10 3 27 7 37 6 16 7 16 19 -1 7 -10 11 -22
8 -26z m74 14 c-6 -8 -11 -28 -10 -44 3 -33 -13 -39 -21 -8 -6 22 23 80 36 72
4 -2 2 -12 -5 -20z m-1955 -34 c16 -28 27 -53 24 -55 -5 -5 -67 85 -67 98 0
21 17 4 43 -43z m1717 -11 c0 -5 -7 -8 -15 -8 -15 0 -20 21 -8 33 7 7 23 -11
23 -25z m-1604 14 c15 -10 35 -70 25 -76 -4 -3 -17 15 -29 39 -21 43 -20 53 4
37z m854 -7 c0 -8 -4 -15 -10 -15 -5 0 -10 7 -10 15 0 8 5 15 10 15 6 0 10 -7
10 -15z m1051 -4 c22 -18 23 -21 8 -36 -23 -23 -59 -4 -59 30 0 30 19 32 51 6z
m313 5 c-7 -19 16 -32 27 -15 6 10 9 10 9 2 0 -7 7 -10 15 -7 19 8 19 -10 -1
-52 -17 -36 -37 -46 -32 -16 2 10 -2 16 -10 14 -8 -1 -12 3 -9 10 2 7 -2 20
-10 29 -13 16 -9 49 8 49 4 0 6 -6 3 -14z m-185 -27 c14 -40 14 -59 0 -59 -5
0 -8 4 -4 9 3 5 -4 12 -15 16 -11 3 -20 12 -20 18 0 7 -4 6 -10 -3 -5 -8 -12
-11 -16 -7 -7 7 33 55 48 56 3 1 11 -13 17 -30z m-279 -4 c0 -8 -2 -15 -4 -15
-2 0 -6 7 -10 15 -3 8 -1 15 4 15 6 0 10 -7 10 -15z m-1346 -10 c3 -8 1 -15
-3 -15 -5 0 -11 7 -15 15 -3 8 -1 15 3 15 5 0 11 -7 15 -15z m1946 -10 c-5
-14 -7 -32 -4 -40 8 -20 -22 -20 -42 0 -21 21 -14 48 16 56 39 11 40 10 30
-16z m-2396 -11 c8 -21 1 -28 -18 -21 -9 4 -13 13 -10 22 8 20 20 19 28 -1z
m3006 6 c0 -5 -4 -10 -10 -10 -5 0 -10 5 -10 10 0 6 5 10 10 10 6 0 10 -4 10
-10z m60 3 c-1 -13 -72 -63 -89 -63 -10 0 -1 13 24 35 38 32 65 44 65 28z
m-1599 -15 c22 -1 39 -4 39 -8 0 -12 -37 -26 -65 -24 -16 1 -36 3 -42 3 -7 1
-13 10 -13 20 0 15 5 19 21 16 12 -2 39 -5 60 -7z m-316 -47 c-10 -16 -25 -3
-25 22 0 20 1 20 16 5 9 -9 13 -21 9 -27z m429 24 c-4 -8 -10 -15 -15 -15 -5
0 -9 7 -9 15 0 8 7 15 15 15 9 0 12 -6 9 -15z m1061 5 c14 -5 23 -15 20 -20
-5 -8 -11 -8 -20 0 -7 6 -18 9 -25 8 -7 -2 -15 3 -17 10 -6 15 7 15 42 2z
m-2511 -9 c3 -4 3 -11 0 -14 -8 -8 -34 3 -34 14 0 11 27 12 34 0z m392 -18
c-7 -7 -26 7 -26 19 0 6 6 6 15 -2 9 -7 13 -15 11 -17z m569 7 c3 -6 -1 -13
-10 -16 -19 -8 -30 0 -20 15 8 14 22 14 30 1z m1237 -15 c-2 -14 -8 -23 -12
-20 -7 4 -7 23 -1 43 1 1 5 2 10 2 4 0 6 -11 3 -25z m1018 15 c-20 -13 -33
-13 -25 0 3 6 14 10 23 10 15 0 15 -2 2 -10z m-4041 -9 c9 -6 10 -11 2 -15 -6
-4 -18 0 -27 8 -12 12 -12 16 -2 16 7 0 19 -4 27 -9z m1548 -6 c22 -16 22 -16
3 -35 -29 -29 -40 -25 -40 15 0 39 6 42 37 20z m53 -5 c0 -11 -4 -20 -9 -20
-11 0 -22 26 -14 34 12 12 23 5 23 -14z m755 10 c4 -6 -5 -10 -19 -10 -14 0
-26 5 -26 10 0 6 9 10 19 10 11 0 23 -4 26 -10z m75 -21 c0 -14 -20 -11 -36 5
-10 11 -11 15 -1 19 13 5 37 -10 37 -24z m-1363 -9 c2 -12 -3 -20 -12 -20 -15
0 -21 31 -8 43 9 9 16 1 20 -23z m1150 18 c14 -23 12 -38 -6 -38 -11 0 -17 8
-17 25 0 27 10 33 23 13z m1088 -37 c-7 -40 -19 -53 -28 -28 -2 6 0 19 4 27 4
8 10 24 14 34 10 33 17 9 10 -33z m-3350 28 c10 -15 -1 -23 -20 -15 -9 3 -13
10 -10 16 8 13 22 13 30 -1z m3690 1 c-3 -5 -10 -10 -16 -10 -5 0 -9 5 -9 10
0 6 7 10 16 10 8 0 12 -4 9 -10z m-2898 -36 c-9 -9 -28 6 -21 18 4 6 10 6 17
-1 6 -6 8 -13 4 -17z m373 11 c10 -12 10 -15 -4 -15 -9 0 -16 7 -16 15 0 8 2
15 4 15 2 0 9 -7 16 -15z m295 -12 c-4 -16 -7 -41 -8 -57 -1 -16 -7 -31 -14
-33 -8 -3 -11 12 -8 54 2 32 4 59 4 61 1 1 8 2 17 2 13 0 15 -6 9 -27z m697
-5 c-9 -9 -12 -7 -12 12 0 19 3 21 12 12 9 -9 9 -15 0 -24z m1820 20 c-4 -4
-21 -9 -38 -11 -16 -2 -35 -7 -42 -11 -7 -4 -12 -3 -12 3 0 6 12 13 28 17 15
3 32 7 37 8 21 5 35 2 27 -6z m-2772 -8 c0 -5 -4 -10 -10 -10 -5 0 -10 5 -10
10 0 6 5 10 10 10 6 0 10 -4 10 -10z m88 -8 c6 -18 -15 -14 -22 4 -4 10 -1 14
6 12 6 -2 14 -10 16 -16z m1087 -22 c-11 -17 -23 -1 -18 21 5 19 7 19 15 5 5
-9 6 -21 3 -26z m-463 15 c13 -17 9 -24 -14 -22 -25 1 -40 16 -32 29 7 11 37
6 46 -7z m-511 -7 c0 -7 2 -23 3 -35 2 -13 1 -23 -2 -23 -10 0 -31 36 -32 53
0 19 30 24 31 5z m2623 6 c32 -12 14 -21 -71 -33 -49 -7 -110 -19 -136 -26
-35 -10 -47 -10 -44 -2 6 21 52 37 143 51 49 8 90 14 91 15 1 0 8 -2 17 -5z
m-2331 -45 c-7 -26 -18 -32 -32 -16 -8 10 -6 19 6 36 18 26 34 13 26 -20z
m157 26 c0 -8 -4 -15 -9 -15 -13 0 -22 16 -14 24 11 11 23 6 23 -9z m195 -7
c-1 -13 -3 -27 -4 -32 -2 -13 -31 14 -31 29 0 12 13 22 31 24 4 1 5 -9 4 -21z
m-440 -36 c-9 -9 -36 28 -29 40 4 5 13 0 21 -12 8 -12 12 -24 8 -28z m165 17
c0 -10 -6 -19 -13 -19 -20 0 -25 9 -20 30 6 24 33 15 33 -11z m176 3 c1 -9 4
-26 7 -38 5 -21 -8 -53 -18 -43 -5 6 -9 56 -6 93 1 22 14 14 17 -12z m521 -12
c-14 -20 -15 -20 -20 -1 -6 23 13 45 26 32 6 -6 3 -18 -6 -31z m49 13 c-10
-10 -19 5 -10 18 6 11 8 11 12 0 2 -7 1 -15 -2 -18z m46 -5 c-7 -7 -12 -8 -12
-2 0 14 12 26 19 19 2 -3 -1 -11 -7 -17z m-1222 -18 c5 0 7 7 4 15 -4 8 -1 15
5 15 6 0 11 -4 11 -9 0 -5 3 -16 6 -24 7 -19 -24 -31 -42 -16 -8 6 -14 21 -14
33 1 19 2 19 11 4 5 -10 14 -18 19 -18z m154 -8 c-3 -38 -3 -39 -14 -22 -15
23 -12 60 3 54 8 -3 13 -17 11 -32z m2503 22 c-3 -3 -12 -4 -19 -1 -8 3 -5 6
6 6 11 1 17 -2 13 -5z m-3177 -32 c0 -34 -29 -122 -39 -122 -5 0 -2 23 5 52 8
29 14 63 14 75 0 13 5 23 10 23 6 0 10 -13 10 -28z m753 -7 c3 -16 0 -24 -7
-22 -14 4 -21 47 -8 47 5 0 12 -11 15 -25z m336 -36 c1 -17 -42 -31 -66 -22
-15 6 -18 33 -3 33 6 0 10 -4 10 -10 0 -16 20 -12 25 5 16 51 17 51 25 30 5
-11 9 -27 9 -36z m170 25 c-14 -18 -24 -11 -15 11 3 9 11 13 16 10 8 -5 7 -11
-1 -21z m1707 11 c33 -2 90 -8 128 -11 45 -4 66 -3 62 4 -3 5 3 12 14 15 11 3
22 1 25 -3 3 -5 -3 -10 -12 -12 -13 -3 -9 -9 17 -20 l35 -16 -75 4 c-87 4
-193 14 -229 21 -31 5 -41 11 -41 24 0 6 4 8 9 5 4 -3 35 -8 67 -11z m-2048
-31 c0 -27 -13 -32 -22 -8 -10 26 -7 44 8 38 7 -3 14 -16 14 -30z m276 -4
c-14 -14 -39 14 -29 31 5 8 12 6 23 -5 11 -11 13 -19 6 -26z m602 14 c-3 -9
-6 -18 -6 -20 0 -2 -4 -4 -9 -4 -5 0 -7 9 -4 20 3 11 10 20 15 20 6 0 7 -7 4
-16z m-1076 -39 c0 -25 -4 -45 -10 -45 -5 0 -10 6 -10 14 0 8 -6 16 -12 19 -9
3 -7 9 6 19 10 8 16 20 12 26 -4 7 -2 12 3 12 6 0 11 -20 11 -45z m2270 19
c30 -4 62 -8 70 -10 8 -1 46 -3 83 -3 43 -1 66 -5 62 -11 -4 -6 -22 -9 -41 -7
-45 5 -44 -9 1 -17 58 -11 39 -25 -26 -20 -34 3 -66 7 -70 10 -5 3 -9 0 -9 -5
0 -6 10 -11 23 -11 12 -1 33 -7 47 -15 14 -8 36 -15 50 -15 26 0 58 -16 50
-24 -3 -2 -24 -1 -47 4 -24 4 -43 4 -43 -1 0 -4 26 -11 58 -14 31 -4 66 -8 77
-10 11 -2 33 -4 49 -4 22 -1 27 -4 19 -12 -6 -6 -36 -9 -72 -7 -34 1 -61 0
-61 -3 0 -8 64 -19 114 -19 57 0 38 -10 -27 -14 -64 -5 -81 -12 -73 -32 4 -11
-5 -14 -37 -14 -23 0 -49 5 -57 10 -11 7 -3 10 29 10 61 0 48 8 -26 15 -34 3
-86 14 -116 24 -31 11 -58 17 -61 14 -3 -4 -6 -2 -6 4 0 17 48 21 76 7 30 -16
54 -18 54 -5 0 8 -34 18 -86 25 -11 1 -31 10 -44 19 -14 9 -34 17 -46 17 -11
0 -21 6 -21 14 0 10 7 12 28 6 16 -5 33 -11 39 -15 5 -3 10 -2 10 4 0 13 -22
26 -40 23 -21 -3 -44 14 -36 26 4 6 14 9 24 6 14 -5 15 -4 2 5 -12 8 -12 13
-3 22 10 10 9 15 -5 26 -15 13 -15 14 8 9 14 -3 50 -8 80 -12z m-2717 -24 c3
-11 1 -20 -4 -20 -5 0 -9 2 -9 4 0 2 -3 11 -6 20 -3 9 -2 16 4 16 5 0 12 -9
15 -20z m2041 5 c-4 -8 -8 -15 -10 -15 -2 0 -4 7 -4 15 0 8 4 15 10 15 5 0 7
-7 4 -15z m-1549 -43 c-8 -8 -25 17 -25 38 0 9 6 6 16 -8 9 -13 13 -26 9 -30z
m748 21 c7 -7 -21 -43 -33 -43 -4 0 -5 11 -2 25 4 24 21 33 35 18z m-333 -18
c0 -8 -4 -15 -9 -15 -5 0 -11 -10 -14 -22 -9 -33 -20 -14 -12 21 7 31 35 44
35 16z m-2170 -5 c8 -5 11 -12 7 -16 -4 -4 -15 0 -24 9 -18 18 -8 23 17 7z
m1486 -17 c-7 -7 -26 7 -26 19 0 6 6 6 15 -2 9 -7 13 -15 11 -17z m564 4 c15
4 20 0 20 -13 0 -14 -7 -19 -25 -19 -20 0 -25 5 -24 25 0 14 3 20 5 14 3 -7
14 -10 24 -7z m140 -2 c0 -8 -4 -15 -10 -15 -5 0 -7 7 -4 15 4 8 8 15 10 15 2
0 4 -7 4 -15z m-312 -17 c16 -16 15 -38 -2 -38 -13 0 -26 20 -26 41 0 13 14
11 28 -3z m-59 -20 c1 7 6 10 12 7 6 -4 8 -9 5 -12 -2 -3 -1 -16 4 -29 10 -27
4 -30 -22 -11 -16 13 -22 30 -18 57 1 11 4 9 10 -5 5 -11 9 -14 9 -7z m513
-23 c-2 -14 -8 -25 -12 -25 -5 0 -7 8 -5 18 2 9 4 20 4 25 1 4 5 7 10 7 4 0 6
-11 3 -25z m394 -12 c-11 -11 -17 4 -9 23 7 18 8 18 11 1 2 -10 1 -21 -2 -24z
m604 19 c0 -12 -18 -24 -58 -40 -62 -24 -82 -27 -82 -13 0 5 15 12 33 15 18 3
48 17 67 31 42 29 40 29 40 7z m935 8 c-3 -5 -13 -10 -21 -10 -8 0 -14 5 -14
10 0 6 9 10 21 10 11 0 17 -4 14 -10z m-2541 -16 c10 -25 -1 -29 -14 -5 -6 12
-7 21 -1 21 5 0 12 -7 15 -16z m498 -20 c-3 -17 -7 -22 -12 -14 -7 11 -7 24
-1 48 1 2 5 1 10 -2 4 -3 6 -17 3 -32z m-534 1 c6 -14 8 -25 3 -25 -4 0 -13
11 -19 25 -6 14 -8 25 -3 25 4 0 13 -11 19 -25z m1084 -7 c-9 -9 -12 -7 -12
12 0 19 3 21 12 12 9 -9 9 -15 0 -24z m-592 -14 c0 -8 -5 -12 -10 -9 -6 4 -8
11 -5 16 9 14 15 11 15 -7z m-226 -10 c4 -10 1 -14 -6 -12 -15 5 -23 28 -10
28 5 0 13 -7 16 -16z m2011 -45 c5 -5 -5 -4 -23 2 -17 6 -32 13 -32 16 0 7 43
-8 55 -18z m-35 -9 c12 -8 9 -10 -12 -10 -16 0 -28 5 -28 10 0 13 20 13 40 0z
m-1513 -63 c-2 -6 -14 -12 -28 -14 -13 -2 -42 -16 -65 -32 -30 -21 -45 -26
-58 -19 -10 5 -16 5 -16 0 0 -14 26 -33 34 -25 11 12 109 2 130 -13 11 -8 30
-14 41 -14 20 1 20 1 0 16 -19 15 -18 16 20 10 l40 -5 -39 17 c-22 10 -36 21
-30 25 5 3 16 2 24 -4 8 -5 26 -8 40 -8 l25 1 -27 10 c-16 5 -28 13 -28 17 0
10 51 2 66 -10 11 -9 11 -55 0 -66 -3 -3 3 -18 14 -33 25 -35 25 -50 3 -50
-15 0 -16 -2 -3 -10 9 -5 17 -5 20 0 3 5 25 0 49 -12 30 -15 39 -24 32 -31 -8
-8 -20 -6 -40 6 -36 21 -41 21 -41 2 0 -11 -8 -13 -32 -8 -38 7 -71 22 -50 23
7 0 11 4 8 9 -6 9 -64 25 -83 22 -7 -1 -13 3 -13 9 0 5 -5 10 -11 10 -5 0 -7
-4 -4 -10 15 -25 -93 35 -150 83 -36 30 -69 32 -145 8 -19 -6 -48 -14 -65 -17
-16 -2 -37 -7 -45 -9 -14 -4 -46 -8 -137 -20 -18 -2 -33 1 -33 6 0 5 6 9 13
10 56 4 308 64 358 85 20 9 56 17 80 18 24 2 55 7 69 13 56 23 83 26 77 10z
m843 -7 c0 -5 -8 -10 -17 -10 -15 0 -16 2 -3 10 19 12 20 12 20 0z m-1987
-139 c9 -1 17 -6 17 -11 0 -10 -42 -8 -113 6 -47 10 -20 21 30 13 26 -4 56 -8
66 -8z m527 8 c0 -5 -6 -9 -12 -10 -7 0 -37 -2 -65 -5 -54 -4 -76 12 -25 18
56 6 102 5 102 -3z"/>
<path d="M2345 2750 c-16 -7 -17 -9 -3 -9 9 -1 20 4 23 9 7 11 7 11 -20 0z"/>
<path d="M2450 2750 c8 -5 24 -9 35 -9 l20 0 -20 9 c-11 5 -27 9 -35 9 -13 1
-13 0 0 -9z"/>
<path d="M2570 2730 c-21 -7 -22 -8 -5 -10 11 -1 27 -3 35 -5 8 -1 21 4 28 11
11 12 9 14 -10 13 -13 -1 -34 -5 -48 -9z"/>
<path d="M2250 2710 c0 -5 7 -7 15 -4 8 4 15 8 15 10 0 2 -7 4 -15 4 -8 0 -15
-4 -15 -10z"/>
<path d="M2130 2610 c0 -11 5 -20 10 -20 6 0 10 9 10 20 0 11 -4 20 -10 20 -5
0 -10 -9 -10 -20z"/>
<path d="M2060 2598 c0 -15 5 -30 11 -34 6 -3 9 -15 6 -25 -9 -33 12 -31 27 3
10 24 15 27 15 14 1 -15 4 -17 12 -9 8 8 6 18 -5 35 -9 14 -13 28 -9 31 3 4 1
7 -5 7 -7 0 -12 -7 -12 -15 0 -20 -10 -19 -26 3 -12 15 -13 15 -14 -10z"/>
<path d="M2277 2613 c-10 -9 -9 -23 2 -23 5 0 11 7 15 15 5 15 -5 20 -17 8z"/>
<path d="M1831 2593 c-8 -9 -10 -18 -4 -24 13 -13 35 12 25 28 -5 7 -11 6 -21
-4z"/>
<path d="M2336 2595 c4 -8 8 -15 10 -15 2 0 4 7 4 15 0 8 -4 15 -10 15 -5 0
-7 -7 -4 -15z"/>
<path d="M2375 2600 c-3 -5 -1 -10 4 -10 6 0 11 5 11 10 0 6 -2 10 -4 10 -3 0
-8 -4 -11 -10z"/>
<path d="M2455 2600 c3 -5 8 -10 11 -10 2 0 4 5 4 10 0 6 -5 10 -11 10 -5 0
-7 -4 -4 -10z"/>
<path d="M1493 2588 c-21 -27 -23 -49 -5 -55 9 -4 22 -14 29 -22 7 -9 13 -11
13 -5 0 6 -7 17 -15 24 -18 15 -19 42 -3 58 8 8 8 12 1 12 -6 0 -15 -6 -20
-12z"/>
<path d="M1880 2565 c6 -8 9 -19 6 -24 -4 -5 -2 -12 3 -15 13 -8 20 31 8 43
-16 16 -31 13 -17 -4z"/>
<path d="M1430 2558 c0 -9 5 -20 11 -23 17 -11 20 0 4 21 -13 17 -14 17 -15 2z"/>
<path d="M2172 2550 c0 -14 2 -19 5 -12 2 6 2 18 0 25 -3 6 -5 1 -5 -13z"/>
<path d="M2002 2540 c0 -14 2 -19 5 -12 2 6 2 18 0 25 -3 6 -5 1 -5 -13z"/>
<path d="M2200 2539 c0 -5 5 -7 10 -4 6 3 10 8 10 11 0 2 -4 4 -10 4 -5 0 -10
-5 -10 -11z"/>
<path d="M1350 2518 c-1 -23 -1 -23 -17 -3 -15 19 -15 19 -9 1 4 -11 2 -22 -3
-25 -5 -4 -11 -25 -13 -49 -5 -52 -13 -60 -29 -31 -9 17 -9 24 0 27 13 4 15
22 2 22 -5 0 -12 -8 -16 -19 -7 -24 45 -127 56 -109 4 6 3 21 -3 31 -8 15 -7
18 3 15 8 -3 18 -29 24 -58 7 -39 15 -54 28 -56 15 -2 17 2 12 26 -3 16 -2 31
4 35 6 3 12 1 12 -4 1 -6 3 -15 4 -21 1 -5 3 -15 4 -21 0 -5 5 -8 10 -4 13 8
8 43 -13 85 -15 31 -17 32 -13 8 3 -18 -1 -29 -11 -33 -18 -7 -15 -11 -42 52
-25 59 -21 98 10 106 20 5 29 47 10 47 -5 0 -10 -10 -10 -22z"/>
<path d="M1560 2535 c0 -5 5 -17 10 -25 5 -8 10 -10 10 -5 0 6 -5 17 -10 25
-5 8 -10 11 -10 5z"/>
<path d="M1780 2520 c0 -17 2 -19 14 -8 14 13 12 28 -5 28 -5 0 -9 -9 -9 -20z"/>
<path d="M1701 2494 c0 -11 3 -14 6 -6 3 7 2 16 -1 19 -3 4 -6 -2 -5 -13z"/>
<path d="M2640 2495 c0 -8 5 -15 10 -15 6 0 10 7 10 15 0 8 -4 15 -10 15 -5 0
-10 -7 -10 -15z"/>
<path d="M1527 2471 c-2 -11 1 -28 9 -38 12 -17 13 -16 14 7 0 36 -16 58 -23
31z"/>
<path d="M1941 2474 c0 -11 3 -14 6 -6 3 7 2 16 -1 19 -3 4 -6 -2 -5 -13z"/>
<path d="M2526 2474 c-9 -22 3 -32 14 -14 12 19 12 30 1 30 -5 0 -12 -7 -15
-16z"/>
<path d="M1607 2473 c-4 -3 -7 -11 -7 -17 0 -6 5 -5 12 2 6 6 9 14 7 17 -3 3
-9 2 -12 -2z"/>
<path d="M2075 2469 c-4 -6 -3 -15 3 -21 6 -6 11 -4 15 6 7 18 -9 31 -18 15z"/>
<path d="M2136 2471 c-4 -5 -2 -12 3 -15 5 -4 12 -2 15 3 4 5 2 12 -3 15 -5 4
-12 2 -15 -3z"/>
<path d="M2332 2460 c0 -14 2 -19 5 -12 2 6 2 18 0 25 -3 6 -5 1 -5 -13z"/>
<path d="M2576 2464 c-16 -15 -17 -87 -1 -102 4 -4 5 11 2 33 -4 43 8 79 24
70 5 -4 7 -11 4 -16 -4 -5 1 -9 9 -9 19 0 21 11 4 28 -16 16 -23 15 -42 -4z"/>
<path d="M1360 2450 c0 -5 7 -10 16 -10 8 0 12 5 9 10 -3 6 -10 10 -16 10 -5
0 -9 -4 -9 -10z"/>
<path d="M1572 2448 c2 -6 10 -14 16 -16 7 -2 10 2 6 12 -7 18 -28 22 -22 4z"/>
<path d="M2045 2440 c-3 -5 -1 -10 4 -10 6 0 11 5 11 10 0 6 -2 10 -4 10 -3 0
-8 -4 -11 -10z"/>
<path d="M1641 2430 c0 -8 4 -22 9 -30 12 -18 12 -2 0 25 -6 13 -9 15 -9 5z"/>
<path d="M1757 2408 c-2 -7 -1 -22 4 -33 6 -16 8 -14 8 13 1 33 -4 41 -12 20z"/>
<path d="M2250 2401 c-13 -25 -13 -31 0 -31 6 0 10 7 10 15 0 10 6 12 18 8 15
-6 15 -5 3 10 -17 21 -18 21 -31 -2z"/>
<path d="M2670 2405 c12 -15 30 -12 30 6 0 5 -10 9 -21 9 -18 0 -19 -2 -9 -15z"/>
<path d="M1710 2401 c0 -5 5 -13 10 -16 6 -3 10 -2 10 4 0 5 -4 13 -10 16 -5
3 -10 2 -10 -4z"/>
<path d="M2176 2402 c-3 -6 -1 -14 5 -17 14 -9 20 -2 10 14 -6 8 -11 9 -15 3z"/>
<path d="M1520 2376 c0 -7 7 -19 15 -26 16 -13 20 -3 9 24 -8 20 -24 21 -24 2z"/>
<path d="M1660 2375 c0 -5 5 -17 10 -25 5 -8 10 -10 10 -5 0 6 -5 17 -10 25
-5 8 -10 11 -10 5z"/>
<path d="M1207 2340 c3 -11 9 -20 13 -20 5 0 6 -10 4 -22 -4 -21 -4 -22 5 -3
5 11 10 29 10 40 1 17 -1 17 -9 5 -8 -13 -10 -12 -10 3 0 9 -4 17 -9 17 -5 0
-7 -9 -4 -20z"/>
<path d="M2193 2328 c-15 -17 -15 -18 4 -18 11 0 28 9 38 19 16 19 16 20 -4
18 -12 -1 -29 -9 -38 -19z"/>
<path d="M735 2522 c2 -7 -1 -11 -8 -10 -7 2 -15 -1 -17 -7 -10 -20 29 -15 54
7 l27 23 -31 0 c-20 0 -29 -4 -25 -13z"/>
<path d="M4348 2443 c-10 -2 -18 -8 -18 -13 0 -5 14 -4 30 1 45 16 36 25 -12
12z"/>
<path d="M4465 2428 c-16 -4 -36 -6 -42 -3 -7 2 -21 1 -30 -2 -15 -6 -14 -8 7
-14 25 -6 24 -7 -25 -24 -16 -5 -17 -8 -5 -15 13 -8 8 -24 -8 -26 -20 -2 -49
-20 -60 -36 -7 -10 -22 -18 -32 -18 -12 0 -22 -9 -26 -24 -4 -17 -13 -23 -32
-23 -24 0 -25 0 -7 13 23 17 5 18 -29 3 -18 -9 -24 -18 -21 -33 2 -12 4 -24 4
-29 1 -4 20 2 42 14 23 11 54 23 68 25 14 2 42 7 61 10 l35 7 -35 12 -35 12
39 17 c21 9 43 16 48 16 5 0 6 9 3 20 -5 14 -2 20 9 20 9 0 16 6 16 14 0 14
67 46 95 46 7 0 16 4 19 9 9 13 -25 19 -59 9z"/>
<path d="M4240 2409 c0 -5 5 -7 10 -4 6 3 10 8 10 11 0 2 -4 4 -10 4 -5 0 -10
-5 -10 -11z"/>
<path d="M3336 2452 c-3 -5 1 -9 9 -9 8 0 12 4 9 9 -3 4 -7 8 -9 8 -2 0 -6 -4
-9 -8z"/>
<path d="M3110 2420 c0 -5 5 -10 10 -10 6 0 10 5 10 10 0 6 -4 10 -10 10 -5 0
-10 -4 -10 -10z"/>
<path d="M4123 1970 c1 -12 8 -20 19 -20 22 0 24 -26 2 -38 -14 -8 -11 -11 14
-20 25 -8 32 -8 36 5 3 8 4 19 0 24 -3 5 0 9 5 9 6 0 11 -7 11 -15 0 -8 8 -15
18 -15 32 0 20 29 -16 41 -19 6 -43 20 -53 30 -25 25 -38 24 -36 -1z"/>
<path d="M4235 1880 c-14 -5 -7 -10 27 -18 59 -15 63 -15 49 2 -14 17 -51 25
-76 16z"/>
<path d="M4250 1826 c0 -9 50 -12 62 -5 8 6 -1 9 -24 9 -21 0 -38 -2 -38 -4z"/>
<path d="M2510 1610 c0 -6 7 -10 15 -10 8 0 15 2 15 4 0 2 -7 6 -15 10 -8 3
-15 1 -15 -4z"/>
<path d="M2560 1595 c16 -20 50 -39 50 -28 0 4 -14 16 -32 26 -26 15 -29 15
-18 2z"/>
<path d="M2650 1565 c-14 -8 -19 -14 -12 -15 6 0 12 -7 12 -15 0 -8 4 -15 10
-15 5 0 7 6 4 13 -4 10 3 12 26 9 34 -5 41 12 11 28 -24 12 -20 12 -51 -5z"/>
<path d="M782 2979 c-8 -12 -9 -18 -4 -15 13 8 44 -23 36 -36 -3 -5 -15 -8
-25 -5 -12 3 -19 0 -19 -10 0 -10 8 -13 27 -11 36 4 48 45 23 76 -22 27 -22
27 -38 1z"/>
<path d="M982 2983 c-7 -13 -6 -24 4 -37 10 -15 11 -23 2 -33 -9 -11 -14 -11
-31 4 -20 18 -20 17 -13 -12 5 -16 10 -41 13 -55 2 -13 6 -27 9 -29 4 -4 8 34
5 51 0 4 8 12 19 18 24 13 26 37 3 62 -18 20 -5 25 17 6 11 -10 11 -9 0 6 -8
11 -13 21 -12 23 2 3 1 7 -1 10 -3 2 -10 -4 -15 -14z"/>
<path d="M570 2934 c0 -8 5 -12 10 -9 6 4 8 11 5 16 -9 14 -15 11 -15 -7z"/>
<path d="M620 2919 c0 -5 -4 -7 -10 -4 -6 4 -9 -4 -7 -17 1 -18 -3 -23 -21
-22 -26 1 -24 -19 2 -24 24 -5 48 18 42 41 -3 14 -1 17 11 13 13 -5 14 -4 3 9
-15 18 -20 19 -20 4z"/>
<path d="M801 2881 c-8 -5 -9 -11 -3 -15 6 -4 9 -16 7 -28 -3 -11 -1 -18 2
-14 4 4 17 -16 30 -44 16 -36 27 -50 42 -50 11 0 22 4 25 9 4 5 -3 7 -14 4
-16 -4 -24 3 -40 41 -12 25 -22 59 -23 76 -2 32 -5 34 -26 21z"/>
<path d="M364 2821 c0 -15 3 -17 18 -8 13 8 14 13 5 19 -18 12 -23 10 -23 -11z"/>
<path d="M610 2832 c0 -5 8 -18 18 -30 9 -11 30 -37 45 -57 30 -37 63 -56 85
-48 20 8 13 22 -8 16 -25 -7 -59 23 -98 84 -25 40 -42 54 -42 35z"/>
<path d="M417 2791 c6 -23 -13 -37 -32 -21 -18 15 -32 -7 -16 -23 9 -9 10 -7
5 8 -7 19 -7 19 13 3 24 -22 28 -22 47 -2 12 12 13 20 6 35 -14 24 -30 25 -23
0z"/>
<path d="M441 2747 c-9 -9 12 -41 23 -35 3 2 20 -11 38 -29 35 -34 88 -60 88
-43 0 6 -7 10 -15 10 -9 0 -40 24 -70 53 -34 33 -58 50 -64 44z"/>
<path d="M660 2730 c-1 -3 -3 -18 -4 -33 -4 -38 -26 -77 -45 -78 -11 0 -12 -2
-3 -6 31 -12 75 69 59 109 -3 7 -6 11 -7 8z"/>
<path d="M212 2678 c6 -18 25 -21 31 -5 3 8 -3 13 -15 14 -10 1 -18 -3 -16 -9z"/>
<path d="M470 2675 c0 -8 4 -15 10 -15 5 0 7 7 4 15 -4 8 -8 15 -10 15 -2 0
-4 -7 -4 -15z"/>
<path d="M611 2647 c-13 -21 -12 -21 5 -5 10 10 16 20 13 22 -3 3 -11 -5 -18
-17z"/>
<path d="M660 2580 c0 -5 7 -7 15 -4 8 4 15 8 15 10 0 2 -7 4 -15 4 -8 0 -15
-4 -15 -10z"/>
<path d="M579 2539 c-23 -19 -23 -20 -2 -10 12 6 25 16 28 21 10 16 -1 12 -26
-11z"/>
<path d="M756 2342 c-2 -4 -1 -14 5 -22 7 -12 9 -10 9 8 0 23 -5 28 -14 14z"/>
<path d="M630 2280 c0 -5 5 -10 10 -10 6 0 10 5 10 10 0 6 -4 10 -10 10 -5 0
-10 -4 -10 -10z"/>
<path d="M3521 2276 c-8 -9 -10 -23 -6 -33 5 -10 7 -26 6 -37 -2 -10 2 -15 7
-12 6 4 13 2 17 -4 4 -6 12 -4 22 5 14 14 14 19 -1 48 -8 18 -16 28 -16 22 -1
-5 -5 -2 -9 8 -6 17 -8 17 -20 3z"/>
<path d="M570 2261 c0 -5 5 -13 10 -16 6 -3 10 -2 10 4 0 5 -4 13 -10 16 -5 3
-10 2 -10 -4z"/>
<path d="M3611 2214 c0 -11 3 -14 6 -6 3 7 2 16 -1 19 -3 4 -6 -2 -5 -13z"/>
<path d="M650 2126 c0 -2 9 -6 20 -9 11 -3 20 -1 20 4 0 5 -9 9 -20 9 -11 0
-20 -2 -20 -4z"/>
<path d="M249 2092 c5 -10 9 -21 8 -27 -1 -12 132 -79 141 -71 3 4 -13 14 -36
23 -23 9 -42 20 -42 25 0 4 -6 8 -14 8 -8 0 -18 5 -22 12 -5 8 -2 9 9 5 10 -3
17 -3 17 2 0 12 -21 27 -47 34 -19 4 -21 2 -14 -11z"/>
<path d="M3890 2089 c0 -5 5 -7 10 -4 6 3 10 8 10 11 0 2 -4 4 -10 4 -5 0 -10
-5 -10 -11z"/>
<path d="M568 2083 c7 -3 16 -2 19 1 4 3 -2 6 -13 5 -11 0 -14 -3 -6 -6z"/>
<path d="M3846 2073 c-6 -14 -5 -15 5 -6 7 7 10 15 7 18 -3 3 -9 -2 -12 -12z"/>
<path d="M1000 2030 c0 -13 18 -22 24 -11 3 5 -1 11 -9 15 -8 3 -15 1 -15 -4z"/>
<path d="M180 2002 c0 -4 51 -31 113 -59 111 -52 123 -47 17 7 -77 39 -130 60
-130 52z"/>
<path d="M908 1953 c7 -3 16 -2 19 1 4 3 -2 6 -13 5 -11 0 -14 -3 -6 -6z"/>
<path d="M490 1946 c0 -3 14 -20 30 -38 17 -18 30 -38 30 -45 0 -7 4 -13 10
-13 12 0 0 30 -25 61 -20 25 -45 44 -45 35z"/>
<path d="M309 1903 c11 -20 165 -94 169 -82 2 5 13 4 24 -2 11 -6 22 -8 26 -5
3 3 3 7 1 9 -2 1 -19 10 -38 20 -28 15 -32 15 -27 2 8 -22 -2 -19 -87 30 -45
25 -74 37 -68 28z"/>
<path d="M915 1910 c-3 -5 1 -10 9 -10 9 0 16 5 16 10 0 6 -4 10 -9 10 -6 0
-13 -4 -16 -10z"/>
<path d="M1215 1831 c-3 -5 -1 -12 5 -16 5 -3 10 1 10 9 0 18 -6 21 -15 7z"/>
<path d="M1530 1822 c0 -5 23 -14 50 -19 28 -6 50 -7 50 -3 0 4 -15 10 -32 13
-18 3 -41 8 -50 12 -10 4 -18 3 -18 -3z"/>
<path d="M3488 1823 c6 -2 12 -11 12 -19 0 -12 2 -12 14 -2 15 14 3 28 -24 27
-10 0 -11 -2 -2 -6z"/>
<path d="M1528 1783 c7 -3 16 -2 19 1 4 3 -2 6 -13 5 -11 0 -14 -3 -6 -6z"/>
<path d="M590 1771 c0 -10 35 -21 65 -21 18 1 17 2 -5 15 -28 16 -60 19 -60 6z"/>
<path d="M1430 1764 c56 -17 75 -17 35 1 -16 8 -41 14 -55 14 -18 0 -12 -5 20
-15z"/>
<path d="M2974 1769 c-4 -8 77 -1 85 7 3 3 -14 4 -37 3 -24 -2 -45 -6 -48 -10z"/>
<path d="M4438 1673 c6 -2 18 -2 25 0 6 3 1 5 -13 5 -14 0 -19 -2 -12 -5z"/>
<path d="M2050 1074 c0 -3 10 -20 23 -38 15 -22 27 -31 38 -27 14 5 14 10 2
39 -10 24 -19 32 -38 32 -14 0 -25 -2 -25 -6z"/>
<path d="M1904 1048 c-56 -15 -75 -47 -79 -135 -2 -49 2 -90 10 -110 29 -70
134 -83 188 -23 22 25 27 40 27 84 l0 53 -47 -3 c-64 -5 -72 -9 -66 -33 3 -14
11 -18 28 -15 33 6 39 -21 11 -52 -29 -34 -71 -27 -87 14 -15 38 -9 133 9 155
20 23 57 22 81 -2 11 -11 30 -21 43 -23 19 -2 23 1 20 22 -6 51 -74 85 -138
68z"/>
<path d="M2233 1048 c-46 -12 -68 -51 -64 -110 2 -26 39 -55 79 -63 64 -11 72
-15 72 -40 0 -42 -52 -57 -102 -31 -24 13 -28 12 -42 -3 -23 -25 -20 -30 19
-47 66 -27 150 -10 175 35 32 61 -5 124 -82 135 -49 7 -74 26 -65 50 11 27 40
35 79 21 33 -11 39 -10 53 5 20 23 19 26 -12 39 -42 16 -75 19 -110 9z"/>
<path d="M2962 1048 c-52 -14 -72 -57 -72 -155 0 -73 3 -85 26 -112 56 -67
170 -46 193 36 11 40 6 155 -8 181 -24 45 -81 66 -139 50z m79 -65 c16 -18 21
-126 8 -160 -12 -32 -56 -41 -81 -16 -16 17 -20 34 -20 92 0 42 5 78 12 86 17
20 64 19 81 -2z"/>
<path d="M1098 988 c-2 -35 -2 -105 0 -156 l3 -93 27 3 c25 3 27 7 29 52 1 34
8 55 21 69 20 19 20 19 61 -51 37 -63 44 -71 71 -70 17 1 30 3 30 6 0 2 -23
45 -51 93 l-51 89 44 53 c23 28 47 55 53 59 5 4 -8 8 -30 8 -32 0 -44 -5 -60
-26 -11 -15 -32 -41 -47 -58 -15 -17 -28 -35 -28 -41 0 -5 -4 -4 -8 2 -5 7 -7
38 -5 68 2 55 2 55 -27 55 -29 0 -29 -1 -32 -62z"/>
<path d="M1390 896 l0 -155 30 1 30 1 0 154 0 153 -30 0 -30 0 0 -154z"/>
<path d="M1523 898 l2 -151 28 -4 27 -4 0 91 c0 49 3 90 8 90 4 -1 32 -40 62
-89 47 -75 59 -88 83 -89 l27 -1 0 155 0 154 -30 0 -29 0 -3 -92 -3 -92 -59
92 c-51 80 -62 92 -86 92 l-28 0 1 -152z"/>
<path d="M2610 897 l0 -154 30 -1 30 -1 0 65 c0 60 1 64 23 64 18 0 29 -13 55
-65 29 -60 34 -65 62 -63 16 1 30 4 30 5 0 2 -14 31 -31 64 l-30 61 25 23 c19
18 26 34 26 62 -1 70 -37 93 -144 93 l-76 0 0 -153z m157 76 c13 -19 12 -24
-4 -40 -12 -12 -32 -19 -53 -18 -34 1 -35 2 -38 43 l-3 43 42 -3 c30 -2 46 -9
56 -25z"/>
<path d="M3180 896 l0 -154 100 1 c98 0 100 0 100 24 0 25 0 25 -87 26 l-53 1
0 128 0 128 -30 0 -30 0 0 -154z"/>
<path d="M3430 896 l0 -155 100 1 100 1 0 27 0 27 -70 -3 -70 -3 0 129 0 130
-30 0 -30 0 0 -154z"/>
<path d="M2180 615 c-16 -19 -5 -45 18 -45 25 0 31 7 25 30 -7 25 -29 32 -43
15z m30 -21 c0 -17 -22 -14 -28 4 -2 7 3 12 12 12 9 0 16 -7 16 -16z"/>
<path d="M924 595 l0 -25 307 0 c314 0 324 1 312 38 -4 9 -75 12 -312 12
l-307 0 0 -25z"/>
<path d="M1620 592 c0 -14 4 -21 11 -16 6 3 15 1 19 -6 4 -7 7 1 6 17 -1 37
-36 42 -36 5z"/>
<path d="M1676 611 c-11 -18 6 -42 28 -39 29 4 29 42 -1 46 -11 2 -24 -1 -27
-7z m36 -16 c0 -5 -5 -11 -11 -13 -6 -2 -11 4 -11 13 0 9 5 15 11 13 6 -2 11
-8 11 -13z"/>
<path d="M1740 609 c0 -6 9 -8 20 -4 14 5 20 2 20 -10 0 -12 -6 -15 -20 -10
-16 5 -20 2 -20 -14 0 -19 2 -20 23 -9 29 17 36 28 30 45 -6 15 -53 18 -53 2z"/>
<path d="M1810 601 c0 -28 24 -45 40 -26 16 20 6 45 -20 45 -13 0 -20 -7 -20
-19z m40 -6 c0 -8 -7 -15 -15 -15 -8 0 -15 7 -15 15 0 8 7 15 15 15 8 0 15 -7
15 -15z"/>
<path d="M1880 599 c-7 -11 -9 -23 -6 -26 3 -3 8 2 12 11 6 15 7 15 20 -1 12
-17 13 -16 7 5 -8 32 -20 36 -33 11z"/>
<path d="M1933 604 c-7 -19 21 -51 31 -35 4 6 0 11 -8 11 -10 0 -13 6 -9 16 4
12 7 13 14 3 4 -8 11 -10 14 -7 10 10 -4 28 -21 28 -8 0 -17 -7 -21 -16z"/>
<path d="M1995 598 c1 -21 35 -35 35 -15 0 4 0 14 0 22 0 8 -8 15 -18 15 -13
0 -18 -7 -17 -22z"/>
<path d="M2054 605 c-8 -21 4 -35 29 -34 l22 0 -22 9 c-13 5 -23 14 -23 19 0
5 10 12 23 14 l22 4 -23 2 c-12 0 -25 -6 -28 -14z"/>
<path d="M2115 598 c1 -13 5 -22 8 -20 4 1 12 2 17 2 20 0 -1 39 -21 40 -3 0
-5 -10 -4 -22z"/>
<path d="M2242 596 c2 -22 6 -23 38 -16 3 0 -4 8 -15 17 -16 13 -17 15 -2 10
9 -4 17 -2 17 3 0 6 -9 10 -20 10 -15 0 -19 -6 -18 -24z"/>
<path d="M2328 592 l-17 -28 34 0 c33 0 33 0 19 28 -8 15 -16 28 -17 28 -2 0
-10 -13 -19 -28z"/>
<path d="M2392 612 c-7 -5 -10 -16 -6 -25 7 -19 39 -23 50 -6 4 8 0 9 -15 4
-16 -5 -21 -2 -21 10 0 12 5 15 21 10 15 -5 19 -4 15 4 -8 13 -26 14 -44 3z"/>
<path d="M2454 605 c-8 -21 4 -35 29 -34 l22 0 -22 9 c-13 5 -23 12 -23 15 0
3 10 10 23 15 l22 9 -23 0 c-12 1 -25 -6 -28 -14z"/>
<path d="M2518 613 c6 -2 12 -14 12 -24 0 -11 5 -17 10 -14 6 4 7 11 4 17 -4
6 0 14 7 19 10 6 5 8 -16 8 -16 0 -24 -3 -17 -6z"/>
<path d="M2574 605 c-8 -19 3 -35 25 -35 12 0 20 9 23 25 4 21 1 25 -19 25
-13 0 -26 -7 -29 -15z m36 -10 c0 -8 -4 -15 -9 -15 -13 0 -22 16 -14 24 11 11
23 6 23 -9z"/>
<path d="M2640 595 c0 -18 5 -25 20 -25 15 0 20 7 20 25 0 18 -5 25 -20 25
-15 0 -20 -7 -20 -25z"/>
<path d="M2713 613 c-18 -7 -16 -30 3 -37 24 -9 29 -7 17 5 -6 6 -9 18 -6 25
5 15 5 15 -14 7z"/>
<path d="M2747 606 c-7 -17 11 -36 35 -36 13 0 18 8 18 25 0 20 -5 25 -24 25
-13 0 -26 -6 -29 -14z m43 -11 c0 -8 -7 -15 -15 -15 -8 0 -15 7 -15 15 0 8 7
15 15 15 8 0 15 -7 15 -15z"/>
<path d="M2844 605 c-8 -21 4 -35 29 -34 17 1 18 2 5 6 -10 2 -18 11 -18 18 0
7 8 16 18 18 12 4 11 5 -6 6 -12 0 -25 -6 -28 -14z"/>
<path d="M2914 585 c1 -44 8 -44 29 0 9 19 13 35 8 35 -5 0 -12 -6 -14 -12 -4
-10 -7 -10 -15 0 -6 8 -8 1 -8 -23z"/>
<path d="M2971 598 c-1 -26 2 -28 39 -28 22 0 40 5 40 10 0 6 -8 10 -17 8 -12
-2 -18 3 -17 15 1 9 -2 17 -7 17 -5 0 -9 -9 -9 -20 0 -27 -18 -25 -23 3 -4 19
-4 18 -6 -5z"/>
<path d="M3060 596 c0 -23 3 -27 12 -18 15 15 32 16 23 2 -3 -5 -1 -10 4 -10
6 0 11 12 11 26 0 23 -2 25 -16 13 -13 -10 -17 -10 -25 2 -6 10 -9 6 -9 -15z"/>
<path d="M3190 595 l0 -25 309 0 308 0 -1 23 -1 22 -307 3 -308 2 0 -25z"/>
</g>
</svg>
